<mxfile host="Electron" modified="2023-07-14T07:20:48.734Z" agent="Mozilla/5.0 (Windows NT 10.0; Win64; x64) AppleWebKit/537.36 (KHTML, like Gecko) draw.io/21.6.1 Chrome/112.0.5615.204 Electron/24.6.1 Safari/537.36" etag="jdPmqyMJNvBrU4Ub80uL" version="21.6.1" type="device">
  <diagram name="第 1 页" id="dG5ejxUGLIfu9oIJB4JN">
    <mxGraphModel dx="5104" dy="12456" grid="1" gridSize="10" guides="1" tooltips="1" connect="1" arrows="1" fold="1" page="1" pageScale="1" pageWidth="3300" pageHeight="10000" math="0" shadow="0">
      <root>
        <mxCell id="0" />
        <mxCell id="1" parent="0" />
        <mxCell id="YBfaTymSBxBAk-N4L25q-14" value="" style="group" vertex="1" connectable="0" parent="1">
          <mxGeometry x="590" y="90" width="1260" height="990" as="geometry" />
        </mxCell>
        <mxCell id="IlGb7HKamF9324BP4FeJ-68" value="" style="group" parent="YBfaTymSBxBAk-N4L25q-14" vertex="1" connectable="0">
          <mxGeometry y="80" width="290" height="910" as="geometry" />
        </mxCell>
        <mxCell id="IlGb7HKamF9324BP4FeJ-18" value="" style="rounded=1;whiteSpace=wrap;html=1;fillColor=#dae8fc;strokeColor=#6c8ebf;" parent="IlGb7HKamF9324BP4FeJ-68" vertex="1">
          <mxGeometry width="290" height="910" as="geometry" />
        </mxCell>
        <mxCell id="YBfaTymSBxBAk-N4L25q-4" style="edgeStyle=orthogonalEdgeStyle;rounded=0;orthogonalLoop=1;jettySize=auto;html=1;exitX=1;exitY=0.5;exitDx=0;exitDy=0;" edge="1" parent="IlGb7HKamF9324BP4FeJ-68" source="IlGb7HKamF9324BP4FeJ-67">
          <mxGeometry relative="1" as="geometry">
            <mxPoint x="470" y="590" as="targetPoint" />
          </mxGeometry>
        </mxCell>
        <mxCell id="YBfaTymSBxBAk-N4L25q-5" value="&lt;font style=&quot;font-size: 30px;&quot;&gt;指向上一个节点的&lt;br&gt;zskiplistNode指针&lt;/font&gt;" style="edgeLabel;html=1;align=center;verticalAlign=middle;resizable=0;points=[];" vertex="1" connectable="0" parent="YBfaTymSBxBAk-N4L25q-4">
          <mxGeometry x="0.967" y="1" relative="1" as="geometry">
            <mxPoint x="145" y="1" as="offset" />
          </mxGeometry>
        </mxCell>
        <mxCell id="IlGb7HKamF9324BP4FeJ-60" value="&lt;font style=&quot;font-size: 30px;&quot;&gt;score&lt;/font&gt;‘" style="rounded=1;whiteSpace=wrap;html=1;fillColor=#fff2cc;strokeColor=#d6b656;" parent="IlGb7HKamF9324BP4FeJ-68" vertex="1">
          <mxGeometry x="70" y="800" width="160" height="90" as="geometry" />
        </mxCell>
        <mxCell id="YBfaTymSBxBAk-N4L25q-11" style="edgeStyle=orthogonalEdgeStyle;rounded=0;orthogonalLoop=1;jettySize=auto;html=1;" edge="1" parent="IlGb7HKamF9324BP4FeJ-68" source="IlGb7HKamF9324BP4FeJ-65">
          <mxGeometry relative="1" as="geometry">
            <mxPoint x="470" y="715" as="targetPoint" />
          </mxGeometry>
        </mxCell>
        <mxCell id="IlGb7HKamF9324BP4FeJ-65" value="&lt;font style=&quot;font-size: 30px;&quot;&gt;obj&lt;br&gt;&lt;/font&gt;" style="rounded=1;whiteSpace=wrap;html=1;fillColor=#f8cecc;strokeColor=#b85450;" parent="IlGb7HKamF9324BP4FeJ-68" vertex="1">
          <mxGeometry x="70" y="670" width="160" height="90" as="geometry" />
        </mxCell>
        <mxCell id="IlGb7HKamF9324BP4FeJ-49" value="" style="group;fillColor=#DAE8FC;strokeColor=#6c8ebf;" parent="IlGb7HKamF9324BP4FeJ-68" vertex="1" connectable="0">
          <mxGeometry x="70" y="20" width="160.00000000000045" height="480" as="geometry" />
        </mxCell>
        <mxCell id="IlGb7HKamF9324BP4FeJ-50" value="" style="group" parent="IlGb7HKamF9324BP4FeJ-49" vertex="1" connectable="0">
          <mxGeometry width="160.00000000000045" height="240" as="geometry" />
        </mxCell>
        <mxCell id="IlGb7HKamF9324BP4FeJ-51" value="" style="group" parent="IlGb7HKamF9324BP4FeJ-50" vertex="1" connectable="0">
          <mxGeometry x="4.547473508864641e-13" width="160" height="160" as="geometry" />
        </mxCell>
        <mxCell id="YBfaTymSBxBAk-N4L25q-2" style="edgeStyle=orthogonalEdgeStyle;rounded=0;orthogonalLoop=1;jettySize=auto;html=1;" edge="1" parent="IlGb7HKamF9324BP4FeJ-51" source="IlGb7HKamF9324BP4FeJ-52">
          <mxGeometry relative="1" as="geometry">
            <mxPoint x="339.99999999999955" y="40" as="targetPoint" />
          </mxGeometry>
        </mxCell>
        <mxCell id="YBfaTymSBxBAk-N4L25q-3" value="&lt;font style=&quot;font-size: 30px;&quot;&gt;包括一个zskiplistNode指针&lt;br&gt;和span（距下一个节点的长度）&lt;br&gt;&lt;/font&gt;" style="edgeLabel;html=1;align=center;verticalAlign=middle;resizable=0;points=[];" vertex="1" connectable="0" parent="YBfaTymSBxBAk-N4L25q-2">
          <mxGeometry x="1" y="5" relative="1" as="geometry">
            <mxPoint x="231" y="5" as="offset" />
          </mxGeometry>
        </mxCell>
        <mxCell id="IlGb7HKamF9324BP4FeJ-52" value="&lt;font style=&quot;font-size: 25px;&quot;&gt;zskiplistLevel&lt;/font&gt;" style="rounded=0;whiteSpace=wrap;html=1;" parent="IlGb7HKamF9324BP4FeJ-51" vertex="1">
          <mxGeometry width="160" height="80" as="geometry" />
        </mxCell>
        <mxCell id="IlGb7HKamF9324BP4FeJ-53" value="&lt;font style=&quot;font-size: 25px;&quot;&gt;zskiplistLevel&lt;/font&gt;" style="rounded=0;whiteSpace=wrap;html=1;" parent="IlGb7HKamF9324BP4FeJ-51" vertex="1">
          <mxGeometry y="80" width="160" height="80" as="geometry" />
        </mxCell>
        <mxCell id="YBfaTymSBxBAk-N4L25q-798" style="edgeStyle=orthogonalEdgeStyle;rounded=0;orthogonalLoop=1;jettySize=auto;html=1;" edge="1" parent="IlGb7HKamF9324BP4FeJ-50" source="IlGb7HKamF9324BP4FeJ-54">
          <mxGeometry relative="1" as="geometry">
            <mxPoint x="440" y="200" as="targetPoint" />
          </mxGeometry>
        </mxCell>
        <mxCell id="IlGb7HKamF9324BP4FeJ-54" value="&lt;font style=&quot;font-size: 30px;&quot;&gt;.&lt;/font&gt;" style="rounded=0;whiteSpace=wrap;html=1;" parent="IlGb7HKamF9324BP4FeJ-50" vertex="1">
          <mxGeometry y="160" width="160" height="80" as="geometry" />
        </mxCell>
        <mxCell id="IlGb7HKamF9324BP4FeJ-55" value="" style="group" parent="IlGb7HKamF9324BP4FeJ-49" vertex="1" connectable="0">
          <mxGeometry y="240" width="160.00000000000045" height="240" as="geometry" />
        </mxCell>
        <mxCell id="IlGb7HKamF9324BP4FeJ-56" value="" style="group" parent="IlGb7HKamF9324BP4FeJ-55" vertex="1" connectable="0">
          <mxGeometry x="4.547473508864641e-13" width="160" height="160" as="geometry" />
        </mxCell>
        <mxCell id="IlGb7HKamF9324BP4FeJ-57" value="&lt;font style=&quot;font-size: 30px;&quot;&gt;.&lt;/font&gt;" style="rounded=0;whiteSpace=wrap;html=1;" parent="IlGb7HKamF9324BP4FeJ-56" vertex="1">
          <mxGeometry width="160" height="80" as="geometry" />
        </mxCell>
        <mxCell id="IlGb7HKamF9324BP4FeJ-58" value="&lt;font style=&quot;font-size: 30px;&quot;&gt;.&lt;/font&gt;" style="rounded=0;whiteSpace=wrap;html=1;" parent="IlGb7HKamF9324BP4FeJ-56" vertex="1">
          <mxGeometry y="80" width="160" height="80" as="geometry" />
        </mxCell>
        <mxCell id="IlGb7HKamF9324BP4FeJ-59" value="&lt;font style=&quot;font-size: 30px;&quot;&gt;.&lt;/font&gt;" style="rounded=0;whiteSpace=wrap;html=1;" parent="IlGb7HKamF9324BP4FeJ-55" vertex="1">
          <mxGeometry y="160" width="160" height="80" as="geometry" />
        </mxCell>
        <mxCell id="IlGb7HKamF9324BP4FeJ-67" value="&lt;font style=&quot;font-size: 30px;&quot;&gt;backward&lt;/font&gt;" style="rounded=0;whiteSpace=wrap;html=1;fillColor=#d5e8d4;strokeColor=#82b366;" parent="IlGb7HKamF9324BP4FeJ-68" vertex="1">
          <mxGeometry x="69.99999999999955" y="550" width="160" height="80" as="geometry" />
        </mxCell>
        <mxCell id="YBfaTymSBxBAk-N4L25q-1" value="&lt;font style=&quot;font-size: 43px;&quot;&gt;zskiplistNode&lt;/font&gt;" style="text;html=1;align=center;verticalAlign=middle;resizable=0;points=[];autosize=1;strokeColor=none;fillColor=none;" vertex="1" parent="YBfaTymSBxBAk-N4L25q-14">
          <mxGeometry width="280" height="70" as="geometry" />
        </mxCell>
        <mxCell id="YBfaTymSBxBAk-N4L25q-9" value="" style="edgeStyle=orthogonalEdgeStyle;rounded=0;orthogonalLoop=1;jettySize=auto;html=1;" edge="1" parent="YBfaTymSBxBAk-N4L25q-14" source="IlGb7HKamF9324BP4FeJ-60">
          <mxGeometry relative="1" as="geometry">
            <mxPoint x="460" y="925" as="targetPoint" />
          </mxGeometry>
        </mxCell>
        <mxCell id="YBfaTymSBxBAk-N4L25q-10" value="&lt;font style=&quot;font-size: 35px;&quot;&gt;分值，用于排序&lt;/font&gt;" style="text;html=1;align=center;verticalAlign=middle;resizable=0;points=[];autosize=1;strokeColor=none;fillColor=none;" vertex="1" parent="YBfaTymSBxBAk-N4L25q-14">
          <mxGeometry x="490" y="900" width="270" height="60" as="geometry" />
        </mxCell>
        <mxCell id="YBfaTymSBxBAk-N4L25q-12" value="&lt;font style=&quot;font-size: 30px;&quot;&gt;成员对象&lt;/font&gt;" style="text;html=1;align=center;verticalAlign=middle;resizable=0;points=[];autosize=1;strokeColor=none;fillColor=none;" vertex="1" parent="YBfaTymSBxBAk-N4L25q-14">
          <mxGeometry x="500" y="770" width="140" height="50" as="geometry" />
        </mxCell>
        <mxCell id="YBfaTymSBxBAk-N4L25q-799" value="创建新的节点时，会根据幂次定律（越大的数出现的概率越小）&lt;br&gt;随机生成一个介于1-32之间的值作为数组的大小" style="text;html=1;align=center;verticalAlign=middle;resizable=0;points=[];autosize=1;strokeColor=none;fillColor=none;fontSize=30;" vertex="1" parent="YBfaTymSBxBAk-N4L25q-14">
          <mxGeometry x="400" y="250" width="860" height="90" as="geometry" />
        </mxCell>
        <mxCell id="YBfaTymSBxBAk-N4L25q-104" value="" style="group;fontSize=30;" vertex="1" connectable="0" parent="1">
          <mxGeometry x="209.99999999999955" y="620" width="160" height="320" as="geometry" />
        </mxCell>
        <mxCell id="YBfaTymSBxBAk-N4L25q-105" value="" style="group;fontSize=30;" vertex="1" connectable="0" parent="YBfaTymSBxBAk-N4L25q-104">
          <mxGeometry width="160" height="160" as="geometry" />
        </mxCell>
        <mxCell id="YBfaTymSBxBAk-N4L25q-106" value="header" style="rounded=0;whiteSpace=wrap;html=1;fontSize=30;" vertex="1" parent="YBfaTymSBxBAk-N4L25q-105">
          <mxGeometry width="160" height="80" as="geometry" />
        </mxCell>
        <mxCell id="YBfaTymSBxBAk-N4L25q-107" value="tail" style="rounded=0;whiteSpace=wrap;html=1;fontSize=30;" vertex="1" parent="YBfaTymSBxBAk-N4L25q-105">
          <mxGeometry y="80" width="160" height="80" as="geometry" />
        </mxCell>
        <mxCell id="YBfaTymSBxBAk-N4L25q-108" value="" style="group;fontSize=30;" vertex="1" connectable="0" parent="YBfaTymSBxBAk-N4L25q-104">
          <mxGeometry y="160" width="160" height="160" as="geometry" />
        </mxCell>
        <mxCell id="YBfaTymSBxBAk-N4L25q-109" value="level" style="rounded=0;whiteSpace=wrap;html=1;fontSize=30;" vertex="1" parent="YBfaTymSBxBAk-N4L25q-108">
          <mxGeometry width="160" height="80" as="geometry" />
        </mxCell>
        <mxCell id="YBfaTymSBxBAk-N4L25q-110" value="length" style="rounded=0;whiteSpace=wrap;html=1;fontSize=30;" vertex="1" parent="YBfaTymSBxBAk-N4L25q-108">
          <mxGeometry y="80" width="160" height="80" as="geometry" />
        </mxCell>
        <mxCell id="YBfaTymSBxBAk-N4L25q-523" value="" style="shape=singleArrow;direction=south;whiteSpace=wrap;html=1;fillColor=#0050ef;strokeColor=#001DBC;fontColor=#ffffff;arrowWidth=1;arrowSize=1;" vertex="1" parent="1">
          <mxGeometry x="1800" y="2700" width="60" height="100" as="geometry" />
        </mxCell>
        <mxCell id="YBfaTymSBxBAk-N4L25q-795" value="&lt;font style=&quot;font-size: 30px;&quot;&gt;Redis使用跳跃表作为有序集合键的底层实现之一,如果一个有序集合包含的&lt;span style=&quot;font-size: 30px; box-sizing: border-box; outline: 0px; font-weight: 700; overflow-wrap: break-word; color: rgb(77, 77, 77); font-family: -apple-system, &amp;quot;SF UI Text&amp;quot;, Arial, &amp;quot;PingFang SC&amp;quot;, &amp;quot;Hiragino Sans GB&amp;quot;, &amp;quot;Microsoft YaHei&amp;quot;, &amp;quot;WenQuanYi Micro Hei&amp;quot;, sans-serif, SimHei, SimSun; background-color: rgb(255, 255, 255);&quot;&gt;元素数量比较多&lt;/span&gt;&lt;span style=&quot;font-size: 30px; color: rgb(77, 77, 77); font-family: -apple-system, &amp;quot;SF UI Text&amp;quot;, Arial, &amp;quot;PingFang SC&amp;quot;, &amp;quot;Hiragino Sans GB&amp;quot;, &amp;quot;Microsoft YaHei&amp;quot;, &amp;quot;WenQuanYi Micro Hei&amp;quot;, sans-serif, SimHei, SimSun; background-color: rgb(255, 255, 255);&quot;&gt;,&lt;br&gt;又或者有序集合中元素的&lt;/span&gt;&lt;span style=&quot;font-size: 30px; box-sizing: border-box; outline: 0px; font-weight: 700; overflow-wrap: break-word; color: rgb(77, 77, 77); font-family: -apple-system, &amp;quot;SF UI Text&amp;quot;, Arial, &amp;quot;PingFang SC&amp;quot;, &amp;quot;Hiragino Sans GB&amp;quot;, &amp;quot;Microsoft YaHei&amp;quot;, &amp;quot;WenQuanYi Micro Hei&amp;quot;, sans-serif, SimHei, SimSun; background-color: rgb(255, 255, 255);&quot;&gt;成员是比较长的字符串&lt;/span&gt;&lt;span style=&quot;background-color: rgb(255, 255, 255);&quot;&gt;&lt;font style=&quot;font-size: 30px;&quot; face=&quot;-apple-system, SF UI Text, Arial, PingFang SC, Hiragino Sans GB, Microsoft YaHei, WenQuanYi Micro Hei, sans-serif, SimHei, SimSun&quot; color=&quot;#4d4d4d&quot;&gt;&lt;span style=&quot;font-size: 30px;&quot;&gt;时, Redis就会使用跳跃表来作为有序集合健的底层实现。&lt;/span&gt;&lt;/font&gt;&lt;br&gt;&lt;div style=&quot;&quot;&gt;&lt;font style=&quot;font-size: 30px;&quot; face=&quot;-apple-system, SF UI Text, Arial, PingFang SC, Hiragino Sans GB, Microsoft YaHei, WenQuanYi Micro Hei, sans-serif, SimHei, SimSun&quot; color=&quot;#4d4d4d&quot;&gt;&lt;span style=&quot;font-size: 30px;&quot;&gt;跳跃表在链表的基础上增加了多级索引以提升查找的效率，但其是一个空间换时间的方案，必然会带来一个问题——索引是占内存的。&lt;/span&gt;&lt;/font&gt;&lt;/div&gt;&lt;div style=&quot;&quot;&gt;&lt;font style=&quot;font-size: 30px;&quot; face=&quot;-apple-system, SF UI Text, Arial, PingFang SC, Hiragino Sans GB, Microsoft YaHei, WenQuanYi Micro Hei, sans-serif, SimHei, SimSun&quot; color=&quot;#4d4d4d&quot;&gt;&lt;span style=&quot;font-size: 30px;&quot;&gt;原始链表中存储的有可能是很大的对象，而索引结点只需要存储关键值值和几个指针，并不需要存储对象，&lt;/span&gt;&lt;/font&gt;&lt;/div&gt;&lt;div style=&quot;&quot;&gt;&lt;font style=&quot;font-size: 30px;&quot; face=&quot;-apple-system, SF UI Text, Arial, PingFang SC, Hiragino Sans GB, Microsoft YaHei, WenQuanYi Micro Hei, sans-serif, SimHei, SimSun&quot; color=&quot;#4d4d4d&quot;&gt;&lt;span style=&quot;font-size: 30px;&quot;&gt;因此当节点本身比较大或者元素数量比较多的时候，其优势必然会被放大，而缺点则可以忽略。&lt;/span&gt;&lt;/font&gt;&lt;/div&gt;&lt;div style=&quot;&quot;&gt;&lt;font face=&quot;-apple-system, SF UI Text, Arial, PingFang SC, Hiragino Sans GB, Microsoft YaHei, WenQuanYi Micro Hei, sans-serif, SimHei, SimSun&quot; color=&quot;#4d4d4d&quot;&gt;它支持平均O(logN)、最坏O(N)复杂度的查找。&lt;/font&gt;&lt;/div&gt;&lt;/span&gt;&lt;/font&gt;" style="text;html=1;align=left;verticalAlign=middle;resizable=0;points=[];autosize=1;strokeColor=none;fillColor=none;" vertex="1" parent="1">
          <mxGeometry x="100" y="-160" width="1790" height="230" as="geometry" />
        </mxCell>
        <mxCell id="YBfaTymSBxBAk-N4L25q-881" value="" style="group" vertex="1" connectable="0" parent="1">
          <mxGeometry x="100.00000000000045" y="2830" width="3879.9999999999995" height="1280" as="geometry" />
        </mxCell>
        <mxCell id="YBfaTymSBxBAk-N4L25q-882" value="" style="group;fontSize=30;" vertex="1" connectable="0" parent="YBfaTymSBxBAk-N4L25q-881">
          <mxGeometry y="960" width="160" height="320" as="geometry" />
        </mxCell>
        <mxCell id="YBfaTymSBxBAk-N4L25q-883" value="" style="group;fontSize=30;" vertex="1" connectable="0" parent="YBfaTymSBxBAk-N4L25q-882">
          <mxGeometry width="160" height="160" as="geometry" />
        </mxCell>
        <mxCell id="YBfaTymSBxBAk-N4L25q-884" value="header" style="rounded=0;whiteSpace=wrap;html=1;fontSize=30;" vertex="1" parent="YBfaTymSBxBAk-N4L25q-883">
          <mxGeometry width="160" height="80" as="geometry" />
        </mxCell>
        <mxCell id="YBfaTymSBxBAk-N4L25q-885" value="tail" style="rounded=0;whiteSpace=wrap;html=1;fontSize=30;" vertex="1" parent="YBfaTymSBxBAk-N4L25q-883">
          <mxGeometry y="80" width="160" height="80" as="geometry" />
        </mxCell>
        <mxCell id="YBfaTymSBxBAk-N4L25q-886" value="" style="group;fontSize=30;" vertex="1" connectable="0" parent="YBfaTymSBxBAk-N4L25q-882">
          <mxGeometry y="160" width="160" height="160" as="geometry" />
        </mxCell>
        <mxCell id="YBfaTymSBxBAk-N4L25q-887" value="level&lt;br&gt;5" style="rounded=0;whiteSpace=wrap;html=1;fontSize=30;" vertex="1" parent="YBfaTymSBxBAk-N4L25q-886">
          <mxGeometry width="160" height="80" as="geometry" />
        </mxCell>
        <mxCell id="YBfaTymSBxBAk-N4L25q-888" value="length&lt;br&gt;3" style="rounded=0;whiteSpace=wrap;html=1;fontSize=30;" vertex="1" parent="YBfaTymSBxBAk-N4L25q-886">
          <mxGeometry y="80" width="160" height="80" as="geometry" />
        </mxCell>
        <mxCell id="YBfaTymSBxBAk-N4L25q-889" style="edgeStyle=orthogonalEdgeStyle;rounded=0;orthogonalLoop=1;jettySize=auto;html=1;entryX=0;entryY=0.5;entryDx=0;entryDy=0;strokeWidth=5;" edge="1" parent="YBfaTymSBxBAk-N4L25q-881" source="YBfaTymSBxBAk-N4L25q-884" target="YBfaTymSBxBAk-N4L25q-906">
          <mxGeometry relative="1" as="geometry">
            <mxPoint x="369.99999999999955" y="460" as="targetPoint" />
          </mxGeometry>
        </mxCell>
        <mxCell id="YBfaTymSBxBAk-N4L25q-890" value="" style="group;fontSize=30;" vertex="1" connectable="0" parent="YBfaTymSBxBAk-N4L25q-881">
          <mxGeometry x="1049.9999999999995" y="20" width="290" height="910" as="geometry" />
        </mxCell>
        <mxCell id="YBfaTymSBxBAk-N4L25q-891" value="" style="rounded=1;whiteSpace=wrap;html=1;fillColor=#dae8fc;strokeColor=#6c8ebf;fontSize=30;" vertex="1" parent="YBfaTymSBxBAk-N4L25q-890">
          <mxGeometry width="290" height="910" as="geometry" />
        </mxCell>
        <mxCell id="YBfaTymSBxBAk-N4L25q-892" value="o1" style="rounded=1;whiteSpace=wrap;html=1;fillColor=#f8cecc;strokeColor=#b85450;fontSize=30;" vertex="1" parent="YBfaTymSBxBAk-N4L25q-890">
          <mxGeometry x="70" y="680" width="160" height="90" as="geometry" />
        </mxCell>
        <mxCell id="YBfaTymSBxBAk-N4L25q-893" style="edgeStyle=orthogonalEdgeStyle;rounded=0;orthogonalLoop=1;jettySize=auto;html=1;strokeWidth=5;" edge="1" parent="YBfaTymSBxBAk-N4L25q-890" source="YBfaTymSBxBAk-N4L25q-895">
          <mxGeometry relative="1" as="geometry">
            <mxPoint x="-50" y="600" as="targetPoint" />
          </mxGeometry>
        </mxCell>
        <mxCell id="YBfaTymSBxBAk-N4L25q-894" value="&lt;font style=&quot;font-size: 30px;&quot;&gt;null&lt;/font&gt;" style="edgeLabel;html=1;align=center;verticalAlign=middle;resizable=0;points=[];" vertex="1" connectable="0" parent="YBfaTymSBxBAk-N4L25q-893">
          <mxGeometry x="0.7598" y="-3" relative="1" as="geometry">
            <mxPoint x="-54" y="3" as="offset" />
          </mxGeometry>
        </mxCell>
        <mxCell id="YBfaTymSBxBAk-N4L25q-895" value="" style="rounded=0;whiteSpace=wrap;html=1;fillColor=#d5e8d4;strokeColor=#82b366;fontSize=30;" vertex="1" parent="YBfaTymSBxBAk-N4L25q-890">
          <mxGeometry x="69.99999999999955" y="560" width="160" height="80" as="geometry" />
        </mxCell>
        <mxCell id="YBfaTymSBxBAk-N4L25q-896" value="1.0" style="rounded=1;whiteSpace=wrap;html=1;fillColor=#fff2cc;strokeColor=#d6b656;fontSize=30;" vertex="1" parent="YBfaTymSBxBAk-N4L25q-890">
          <mxGeometry x="70" y="800" width="160" height="90" as="geometry" />
        </mxCell>
        <mxCell id="YBfaTymSBxBAk-N4L25q-897" value="" style="group;fontSize=30;" vertex="1" connectable="0" parent="YBfaTymSBxBAk-N4L25q-890">
          <mxGeometry x="70" y="120" width="160.00000000000045" height="400" as="geometry" />
        </mxCell>
        <mxCell id="YBfaTymSBxBAk-N4L25q-898" value="" style="group;fontSize=30;" vertex="1" connectable="0" parent="YBfaTymSBxBAk-N4L25q-897">
          <mxGeometry width="160.00000000000045" height="240" as="geometry" />
        </mxCell>
        <mxCell id="YBfaTymSBxBAk-N4L25q-899" value="" style="group;fontSize=30;" vertex="1" connectable="0" parent="YBfaTymSBxBAk-N4L25q-898">
          <mxGeometry x="4.547473508864641e-13" width="160" height="160" as="geometry" />
        </mxCell>
        <mxCell id="YBfaTymSBxBAk-N4L25q-900" value="" style="rounded=0;whiteSpace=wrap;html=1;fontSize=30;" vertex="1" parent="YBfaTymSBxBAk-N4L25q-899">
          <mxGeometry y="80" width="160" height="80" as="geometry" />
        </mxCell>
        <mxCell id="YBfaTymSBxBAk-N4L25q-901" value="" style="rounded=0;whiteSpace=wrap;html=1;fontSize=30;" vertex="1" parent="YBfaTymSBxBAk-N4L25q-898">
          <mxGeometry y="160" width="160" height="80" as="geometry" />
        </mxCell>
        <mxCell id="YBfaTymSBxBAk-N4L25q-902" value="" style="group;fontSize=30;" vertex="1" connectable="0" parent="YBfaTymSBxBAk-N4L25q-897">
          <mxGeometry y="240" width="160" height="160" as="geometry" />
        </mxCell>
        <mxCell id="YBfaTymSBxBAk-N4L25q-903" value="" style="rounded=0;whiteSpace=wrap;html=1;fontSize=30;" vertex="1" parent="YBfaTymSBxBAk-N4L25q-902">
          <mxGeometry width="160" height="80" as="geometry" />
        </mxCell>
        <mxCell id="YBfaTymSBxBAk-N4L25q-904" value="" style="rounded=0;whiteSpace=wrap;html=1;fontSize=30;" vertex="1" parent="YBfaTymSBxBAk-N4L25q-902">
          <mxGeometry y="80" width="160" height="80" as="geometry" />
        </mxCell>
        <mxCell id="YBfaTymSBxBAk-N4L25q-905" value="" style="group;fontSize=30;" vertex="1" connectable="0" parent="YBfaTymSBxBAk-N4L25q-881">
          <mxGeometry x="469.99999999999955" y="20" width="290" height="910" as="geometry" />
        </mxCell>
        <mxCell id="YBfaTymSBxBAk-N4L25q-906" value="" style="rounded=1;whiteSpace=wrap;html=1;fillColor=#dae8fc;strokeColor=#6c8ebf;fontSize=30;" vertex="1" parent="YBfaTymSBxBAk-N4L25q-905">
          <mxGeometry width="290" height="910" as="geometry" />
        </mxCell>
        <mxCell id="YBfaTymSBxBAk-N4L25q-907" value="null" style="rounded=1;whiteSpace=wrap;html=1;fillColor=#f8cecc;strokeColor=#b85450;fontSize=30;" vertex="1" parent="YBfaTymSBxBAk-N4L25q-905">
          <mxGeometry x="70" y="670" width="160" height="90" as="geometry" />
        </mxCell>
        <mxCell id="YBfaTymSBxBAk-N4L25q-908" value="null" style="rounded=0;whiteSpace=wrap;html=1;fillColor=#d5e8d4;strokeColor=#82b366;fontSize=30;" vertex="1" parent="YBfaTymSBxBAk-N4L25q-905">
          <mxGeometry x="64.99999999999955" y="550" width="160" height="80" as="geometry" />
        </mxCell>
        <mxCell id="YBfaTymSBxBAk-N4L25q-909" value="null" style="rounded=1;whiteSpace=wrap;html=1;fillColor=#fff2cc;strokeColor=#d6b656;fontSize=30;" vertex="1" parent="YBfaTymSBxBAk-N4L25q-905">
          <mxGeometry x="70" y="800" width="160" height="90" as="geometry" />
        </mxCell>
        <mxCell id="YBfaTymSBxBAk-N4L25q-910" value="" style="group;fontSize=30;" vertex="1" connectable="0" parent="YBfaTymSBxBAk-N4L25q-905">
          <mxGeometry x="65" y="40" width="160.00000000000045" height="480" as="geometry" />
        </mxCell>
        <mxCell id="YBfaTymSBxBAk-N4L25q-911" value="" style="group;fontSize=30;" vertex="1" connectable="0" parent="YBfaTymSBxBAk-N4L25q-910">
          <mxGeometry width="160.00000000000045" height="240" as="geometry" />
        </mxCell>
        <mxCell id="YBfaTymSBxBAk-N4L25q-912" value="" style="group;fontSize=30;" vertex="1" connectable="0" parent="YBfaTymSBxBAk-N4L25q-911">
          <mxGeometry x="4.547473508864641e-13" width="160" height="160" as="geometry" />
        </mxCell>
        <mxCell id="YBfaTymSBxBAk-N4L25q-913" value="...L32" style="rounded=0;whiteSpace=wrap;html=1;fontSize=30;" vertex="1" parent="YBfaTymSBxBAk-N4L25q-912">
          <mxGeometry width="160" height="80" as="geometry" />
        </mxCell>
        <mxCell id="YBfaTymSBxBAk-N4L25q-914" value="L5" style="rounded=0;whiteSpace=wrap;html=1;fontSize=30;" vertex="1" parent="YBfaTymSBxBAk-N4L25q-912">
          <mxGeometry y="80" width="160" height="80" as="geometry" />
        </mxCell>
        <mxCell id="YBfaTymSBxBAk-N4L25q-915" value="L4" style="rounded=0;whiteSpace=wrap;html=1;fontSize=30;" vertex="1" parent="YBfaTymSBxBAk-N4L25q-911">
          <mxGeometry y="160" width="160" height="80" as="geometry" />
        </mxCell>
        <mxCell id="YBfaTymSBxBAk-N4L25q-916" value="" style="group;fontSize=30;" vertex="1" connectable="0" parent="YBfaTymSBxBAk-N4L25q-910">
          <mxGeometry y="240" width="160.00000000000045" height="240" as="geometry" />
        </mxCell>
        <mxCell id="YBfaTymSBxBAk-N4L25q-917" value="" style="group;fontSize=30;" vertex="1" connectable="0" parent="YBfaTymSBxBAk-N4L25q-916">
          <mxGeometry x="4.547473508864641e-13" width="160" height="160" as="geometry" />
        </mxCell>
        <mxCell id="YBfaTymSBxBAk-N4L25q-918" value="L3" style="rounded=0;whiteSpace=wrap;html=1;fontSize=30;" vertex="1" parent="YBfaTymSBxBAk-N4L25q-917">
          <mxGeometry width="160" height="80" as="geometry" />
        </mxCell>
        <mxCell id="YBfaTymSBxBAk-N4L25q-919" value="L2" style="rounded=0;whiteSpace=wrap;html=1;fontSize=30;" vertex="1" parent="YBfaTymSBxBAk-N4L25q-917">
          <mxGeometry y="80" width="160" height="80" as="geometry" />
        </mxCell>
        <mxCell id="YBfaTymSBxBAk-N4L25q-920" value="L1" style="rounded=0;whiteSpace=wrap;html=1;fontSize=30;" vertex="1" parent="YBfaTymSBxBAk-N4L25q-916">
          <mxGeometry y="160" width="160" height="80" as="geometry" />
        </mxCell>
        <mxCell id="YBfaTymSBxBAk-N4L25q-930" style="edgeStyle=orthogonalEdgeStyle;rounded=0;orthogonalLoop=1;jettySize=auto;html=1;entryX=-0.007;entryY=0.27;entryDx=0;entryDy=0;entryPerimeter=0;strokeWidth=5;" edge="1" parent="YBfaTymSBxBAk-N4L25q-881" source="YBfaTymSBxBAk-N4L25q-915" target="YBfaTymSBxBAk-N4L25q-891">
          <mxGeometry relative="1" as="geometry">
            <mxPoint x="1049.9999999999995" y="270" as="targetPoint" />
          </mxGeometry>
        </mxCell>
        <mxCell id="YBfaTymSBxBAk-N4L25q-931" value="&lt;font style=&quot;font-size: 40px;&quot;&gt;1&lt;/font&gt;" style="edgeLabel;html=1;align=center;verticalAlign=middle;resizable=0;points=[];fontSize=40;" vertex="1" connectable="0" parent="YBfaTymSBxBAk-N4L25q-930">
          <mxGeometry x="-0.0099" y="5" relative="1" as="geometry">
            <mxPoint x="12" y="-10" as="offset" />
          </mxGeometry>
        </mxCell>
        <mxCell id="YBfaTymSBxBAk-N4L25q-932" style="edgeStyle=orthogonalEdgeStyle;rounded=0;orthogonalLoop=1;jettySize=auto;html=1;entryX=0;entryY=0.353;entryDx=0;entryDy=0;entryPerimeter=0;strokeWidth=5;" edge="1" parent="YBfaTymSBxBAk-N4L25q-881" source="YBfaTymSBxBAk-N4L25q-918" target="YBfaTymSBxBAk-N4L25q-891">
          <mxGeometry relative="1" as="geometry" />
        </mxCell>
        <mxCell id="YBfaTymSBxBAk-N4L25q-933" value="&lt;font style=&quot;font-size: 40px;&quot;&gt;1&lt;/font&gt;" style="edgeLabel;html=1;align=center;verticalAlign=middle;resizable=0;points=[];fontSize=40;" vertex="1" connectable="0" parent="YBfaTymSBxBAk-N4L25q-932">
          <mxGeometry x="0.2559" y="3" relative="1" as="geometry">
            <mxPoint x="1" as="offset" />
          </mxGeometry>
        </mxCell>
        <mxCell id="YBfaTymSBxBAk-N4L25q-934" style="edgeStyle=orthogonalEdgeStyle;rounded=0;orthogonalLoop=1;jettySize=auto;html=1;entryX=0;entryY=0.44;entryDx=0;entryDy=0;entryPerimeter=0;strokeWidth=5;" edge="1" parent="YBfaTymSBxBAk-N4L25q-881" source="YBfaTymSBxBAk-N4L25q-919" target="YBfaTymSBxBAk-N4L25q-891">
          <mxGeometry relative="1" as="geometry" />
        </mxCell>
        <mxCell id="YBfaTymSBxBAk-N4L25q-935" style="edgeStyle=orthogonalEdgeStyle;rounded=0;orthogonalLoop=1;jettySize=auto;html=1;entryX=-0.021;entryY=0.525;entryDx=0;entryDy=0;entryPerimeter=0;strokeWidth=5;" edge="1" parent="YBfaTymSBxBAk-N4L25q-881" source="YBfaTymSBxBAk-N4L25q-920" target="YBfaTymSBxBAk-N4L25q-891">
          <mxGeometry relative="1" as="geometry" />
        </mxCell>
        <mxCell id="YBfaTymSBxBAk-N4L25q-936" style="edgeStyle=orthogonalEdgeStyle;rounded=0;orthogonalLoop=1;jettySize=auto;html=1;entryX=0.001;entryY=0.529;entryDx=0;entryDy=0;entryPerimeter=0;strokeWidth=5;" edge="1" parent="YBfaTymSBxBAk-N4L25q-881" source="YBfaTymSBxBAk-N4L25q-904" target="YBfaTymSBxBAk-N4L25q-922">
          <mxGeometry relative="1" as="geometry" />
        </mxCell>
        <mxCell id="YBfaTymSBxBAk-N4L25q-937" style="edgeStyle=orthogonalEdgeStyle;rounded=0;orthogonalLoop=1;jettySize=auto;html=1;entryX=-0.008;entryY=0.436;entryDx=0;entryDy=0;entryPerimeter=0;strokeWidth=5;" edge="1" parent="YBfaTymSBxBAk-N4L25q-881" source="YBfaTymSBxBAk-N4L25q-903" target="YBfaTymSBxBAk-N4L25q-922">
          <mxGeometry relative="1" as="geometry" />
        </mxCell>
        <mxCell id="YBfaTymSBxBAk-N4L25q-954" style="edgeStyle=orthogonalEdgeStyle;rounded=0;orthogonalLoop=1;jettySize=auto;html=1;strokeWidth=5;entryX=-0.026;entryY=0.52;entryDx=0;entryDy=0;entryPerimeter=0;" edge="1" parent="YBfaTymSBxBAk-N4L25q-881" source="YBfaTymSBxBAk-N4L25q-929" target="YBfaTymSBxBAk-N4L25q-939">
          <mxGeometry relative="1" as="geometry">
            <mxPoint x="2079.9999999999995" y="490" as="targetPoint" />
          </mxGeometry>
        </mxCell>
        <mxCell id="YBfaTymSBxBAk-N4L25q-955" value="1" style="edgeLabel;html=1;align=center;verticalAlign=middle;resizable=0;points=[];fontSize=40;" vertex="1" connectable="0" parent="YBfaTymSBxBAk-N4L25q-954">
          <mxGeometry x="0.294" y="7" relative="1" as="geometry">
            <mxPoint as="offset" />
          </mxGeometry>
        </mxCell>
        <mxCell id="YBfaTymSBxBAk-N4L25q-956" style="edgeStyle=orthogonalEdgeStyle;rounded=0;orthogonalLoop=1;jettySize=auto;html=1;strokeWidth=5;entryX=-0.017;entryY=0.438;entryDx=0;entryDy=0;entryPerimeter=0;" edge="1" parent="YBfaTymSBxBAk-N4L25q-881" source="YBfaTymSBxBAk-N4L25q-928" target="YBfaTymSBxBAk-N4L25q-821">
          <mxGeometry relative="1" as="geometry">
            <mxPoint x="2079.9999999999995" y="410" as="targetPoint" />
          </mxGeometry>
        </mxCell>
        <mxCell id="YBfaTymSBxBAk-N4L25q-957" style="edgeStyle=orthogonalEdgeStyle;rounded=0;orthogonalLoop=1;jettySize=auto;html=1;entryX=0;entryY=0.341;entryDx=0;entryDy=0;entryPerimeter=0;strokeWidth=5;" edge="1" parent="YBfaTymSBxBAk-N4L25q-881" source="YBfaTymSBxBAk-N4L25q-901" target="YBfaTymSBxBAk-N4L25q-821">
          <mxGeometry relative="1" as="geometry" />
        </mxCell>
        <mxCell id="YBfaTymSBxBAk-N4L25q-958" value="2" style="edgeLabel;html=1;align=center;verticalAlign=middle;resizable=0;points=[];fontSize=40;" vertex="1" connectable="0" parent="YBfaTymSBxBAk-N4L25q-957">
          <mxGeometry x="-0.6353" y="1" relative="1" as="geometry">
            <mxPoint x="2" as="offset" />
          </mxGeometry>
        </mxCell>
        <mxCell id="YBfaTymSBxBAk-N4L25q-959" value="1" style="edgeStyle=orthogonalEdgeStyle;rounded=0;orthogonalLoop=1;jettySize=auto;html=1;entryX=0;entryY=0.253;entryDx=0;entryDy=0;entryPerimeter=0;strokeWidth=5;" edge="1" parent="YBfaTymSBxBAk-N4L25q-881" source="YBfaTymSBxBAk-N4L25q-900" target="YBfaTymSBxBAk-N4L25q-939">
          <mxGeometry relative="1" as="geometry" />
        </mxCell>
        <mxCell id="YBfaTymSBxBAk-N4L25q-960" value="&lt;span style=&quot;font-size: 40px;&quot;&gt;2&lt;/span&gt;" style="edgeLabel;html=1;align=center;verticalAlign=middle;resizable=0;points=[];fontSize=40;" vertex="1" connectable="0" parent="YBfaTymSBxBAk-N4L25q-959">
          <mxGeometry x="-0.5957" y="2" relative="1" as="geometry">
            <mxPoint as="offset" />
          </mxGeometry>
        </mxCell>
        <mxCell id="YBfaTymSBxBAk-N4L25q-961" style="edgeStyle=orthogonalEdgeStyle;rounded=0;orthogonalLoop=1;jettySize=auto;html=1;entryX=0;entryY=0.18;entryDx=0;entryDy=0;entryPerimeter=0;strokeWidth=5;" edge="1" parent="YBfaTymSBxBAk-N4L25q-881" source="YBfaTymSBxBAk-N4L25q-914" target="YBfaTymSBxBAk-N4L25q-939">
          <mxGeometry relative="1" as="geometry" />
        </mxCell>
        <mxCell id="YBfaTymSBxBAk-N4L25q-962" style="edgeStyle=orthogonalEdgeStyle;rounded=0;orthogonalLoop=1;jettySize=auto;html=1;entryX=1.068;entryY=0.646;entryDx=0;entryDy=0;entryPerimeter=0;strokeWidth=5;" edge="1" parent="YBfaTymSBxBAk-N4L25q-881" source="YBfaTymSBxBAk-N4L25q-924" target="YBfaTymSBxBAk-N4L25q-891">
          <mxGeometry relative="1" as="geometry" />
        </mxCell>
        <mxCell id="YBfaTymSBxBAk-N4L25q-963" style="edgeStyle=orthogonalEdgeStyle;rounded=0;orthogonalLoop=1;jettySize=auto;html=1;entryX=1;entryY=0.648;entryDx=0;entryDy=0;entryPerimeter=0;strokeWidth=5;" edge="1" parent="YBfaTymSBxBAk-N4L25q-881" source="YBfaTymSBxBAk-N4L25q-941" target="YBfaTymSBxBAk-N4L25q-922">
          <mxGeometry relative="1" as="geometry" />
        </mxCell>
        <mxCell id="YBfaTymSBxBAk-N4L25q-964" style="edgeStyle=orthogonalEdgeStyle;rounded=0;orthogonalLoop=1;jettySize=auto;html=1;entryX=0.5;entryY=1;entryDx=0;entryDy=0;strokeWidth=5;" edge="1" parent="YBfaTymSBxBAk-N4L25q-881" source="YBfaTymSBxBAk-N4L25q-885" target="YBfaTymSBxBAk-N4L25q-939">
          <mxGeometry relative="1" as="geometry" />
        </mxCell>
        <mxCell id="YBfaTymSBxBAk-N4L25q-965" value="&lt;font style=&quot;font-size: 40px;&quot;&gt;3&lt;/font&gt;" style="text;html=1;align=center;verticalAlign=middle;resizable=0;points=[];autosize=1;strokeColor=none;fillColor=none;fontSize=40;" vertex="1" parent="YBfaTymSBxBAk-N4L25q-881">
          <mxGeometry x="864.9999999999995" y="123" width="50" height="60" as="geometry" />
        </mxCell>
        <mxCell id="YBfaTymSBxBAk-N4L25q-966" value="&lt;font style=&quot;font-size: 40px;&quot;&gt;1&lt;/font&gt;" style="text;html=1;align=center;verticalAlign=middle;resizable=0;points=[];autosize=1;strokeColor=none;fillColor=none;fontSize=40;" vertex="1" parent="YBfaTymSBxBAk-N4L25q-881">
          <mxGeometry x="874.9999999999995" y="453" width="50" height="60" as="geometry" />
        </mxCell>
        <mxCell id="YBfaTymSBxBAk-N4L25q-967" value="1" style="text;html=1;align=center;verticalAlign=middle;resizable=0;points=[];autosize=1;strokeColor=none;fillColor=none;fontSize=40;" vertex="1" parent="YBfaTymSBxBAk-N4L25q-881">
          <mxGeometry x="1454.9999999999995" y="373" width="50" height="60" as="geometry" />
        </mxCell>
        <mxCell id="YBfaTymSBxBAk-N4L25q-968" value="1" style="text;html=1;align=center;verticalAlign=middle;resizable=0;points=[];autosize=1;strokeColor=none;fillColor=none;fontSize=40;" vertex="1" parent="YBfaTymSBxBAk-N4L25q-881">
          <mxGeometry x="1454.9999999999995" y="453" width="50" height="60" as="geometry" />
        </mxCell>
        <mxCell id="YBfaTymSBxBAk-N4L25q-969" value="1" style="text;html=1;align=center;verticalAlign=middle;resizable=0;points=[];autosize=1;strokeColor=none;fillColor=none;fontSize=40;" vertex="1" parent="YBfaTymSBxBAk-N4L25q-881">
          <mxGeometry x="1944.9999999999995" y="353" width="50" height="60" as="geometry" />
        </mxCell>
        <mxCell id="YBfaTymSBxBAk-N4L25q-985" style="edgeStyle=orthogonalEdgeStyle;rounded=0;orthogonalLoop=1;jettySize=auto;html=1;strokeWidth=5;entryX=-0.011;entryY=0.452;entryDx=0;entryDy=0;entryPerimeter=0;" edge="1" parent="YBfaTymSBxBAk-N4L25q-881" source="YBfaTymSBxBAk-N4L25q-952" target="YBfaTymSBxBAk-N4L25q-971">
          <mxGeometry relative="1" as="geometry">
            <mxPoint x="2519.9999999999995" y="410" as="targetPoint" />
          </mxGeometry>
        </mxCell>
        <mxCell id="YBfaTymSBxBAk-N4L25q-986" style="edgeStyle=orthogonalEdgeStyle;rounded=0;orthogonalLoop=1;jettySize=auto;html=1;strokeWidth=5;entryX=-0.011;entryY=0.534;entryDx=0;entryDy=0;entryPerimeter=0;" edge="1" parent="YBfaTymSBxBAk-N4L25q-881" source="YBfaTymSBxBAk-N4L25q-953" target="YBfaTymSBxBAk-N4L25q-971">
          <mxGeometry relative="1" as="geometry">
            <mxPoint x="2529.9999999999995" y="490" as="targetPoint" />
          </mxGeometry>
        </mxCell>
        <mxCell id="YBfaTymSBxBAk-N4L25q-987" style="edgeStyle=orthogonalEdgeStyle;rounded=0;orthogonalLoop=1;jettySize=auto;html=1;strokeWidth=5;entryX=1.017;entryY=0.629;entryDx=0;entryDy=0;entryPerimeter=0;" edge="1" parent="YBfaTymSBxBAk-N4L25q-881" source="YBfaTymSBxBAk-N4L25q-973" target="YBfaTymSBxBAk-N4L25q-939">
          <mxGeometry relative="1" as="geometry">
            <mxPoint x="2439.9999999999995" y="590" as="targetPoint" />
          </mxGeometry>
        </mxCell>
        <mxCell id="YBfaTymSBxBAk-N4L25q-970" value="" style="group;fontSize=30;strokeWidth=5;" vertex="1" connectable="0" parent="YBfaTymSBxBAk-N4L25q-881">
          <mxGeometry x="3019.9999999999995" y="-10" width="410" height="910" as="geometry" />
        </mxCell>
        <mxCell id="YBfaTymSBxBAk-N4L25q-971" value="" style="rounded=1;whiteSpace=wrap;html=1;fillColor=#dae8fc;strokeColor=#6c8ebf;fontSize=30;" vertex="1" parent="YBfaTymSBxBAk-N4L25q-970">
          <mxGeometry width="290" height="910" as="geometry" />
        </mxCell>
        <mxCell id="YBfaTymSBxBAk-N4L25q-972" value="o4" style="rounded=1;whiteSpace=wrap;html=1;fillColor=#f8cecc;strokeColor=#b85450;fontSize=30;" vertex="1" parent="YBfaTymSBxBAk-N4L25q-970">
          <mxGeometry x="70" y="670" width="160" height="90" as="geometry" />
        </mxCell>
        <mxCell id="YBfaTymSBxBAk-N4L25q-973" value="" style="rounded=0;whiteSpace=wrap;html=1;fillColor=#d5e8d4;strokeColor=#82b366;fontSize=30;" vertex="1" parent="YBfaTymSBxBAk-N4L25q-970">
          <mxGeometry x="64.99999999999955" y="550" width="160" height="80" as="geometry" />
        </mxCell>
        <mxCell id="YBfaTymSBxBAk-N4L25q-974" value="4" style="rounded=1;whiteSpace=wrap;html=1;fillColor=#fff2cc;strokeColor=#d6b656;fontSize=30;" vertex="1" parent="YBfaTymSBxBAk-N4L25q-970">
          <mxGeometry x="70" y="800" width="160" height="90" as="geometry" />
        </mxCell>
        <mxCell id="YBfaTymSBxBAk-N4L25q-975" value="" style="group;fontSize=30;" vertex="1" connectable="0" parent="YBfaTymSBxBAk-N4L25q-970">
          <mxGeometry x="59.999999999999545" y="350" width="160" height="160" as="geometry" />
        </mxCell>
        <mxCell id="YBfaTymSBxBAk-N4L25q-976" style="edgeStyle=orthogonalEdgeStyle;rounded=0;orthogonalLoop=1;jettySize=auto;html=1;exitX=0.5;exitY=1;exitDx=0;exitDy=0;" edge="1" parent="YBfaTymSBxBAk-N4L25q-975" source="YBfaTymSBxBAk-N4L25q-977" target="YBfaTymSBxBAk-N4L25q-978">
          <mxGeometry relative="1" as="geometry" />
        </mxCell>
        <mxCell id="YBfaTymSBxBAk-N4L25q-977" value="" style="rounded=0;whiteSpace=wrap;html=1;fontSize=30;" vertex="1" parent="YBfaTymSBxBAk-N4L25q-975">
          <mxGeometry width="160" height="80" as="geometry" />
        </mxCell>
        <mxCell id="YBfaTymSBxBAk-N4L25q-978" value="" style="rounded=0;whiteSpace=wrap;html=1;fontSize=30;" vertex="1" parent="YBfaTymSBxBAk-N4L25q-975">
          <mxGeometry y="80" width="160" height="80" as="geometry" />
        </mxCell>
        <mxCell id="YBfaTymSBxBAk-N4L25q-979" style="edgeStyle=orthogonalEdgeStyle;rounded=0;orthogonalLoop=1;jettySize=auto;html=1;strokeWidth=5;" edge="1" parent="YBfaTymSBxBAk-N4L25q-881" source="YBfaTymSBxBAk-N4L25q-978">
          <mxGeometry relative="1" as="geometry">
            <mxPoint x="3549.9999999999995" y="460" as="targetPoint" />
          </mxGeometry>
        </mxCell>
        <mxCell id="YBfaTymSBxBAk-N4L25q-980" style="edgeStyle=orthogonalEdgeStyle;rounded=0;orthogonalLoop=1;jettySize=auto;html=1;strokeWidth=5;" edge="1" parent="YBfaTymSBxBAk-N4L25q-881" source="YBfaTymSBxBAk-N4L25q-977">
          <mxGeometry relative="1" as="geometry">
            <mxPoint x="3559.9999999999995" y="380" as="targetPoint" />
          </mxGeometry>
        </mxCell>
        <mxCell id="YBfaTymSBxBAk-N4L25q-983" value="&lt;font style=&quot;font-size: 40px;&quot;&gt;null&lt;/font&gt;" style="text;html=1;align=center;verticalAlign=middle;resizable=0;points=[];autosize=1;strokeColor=none;fillColor=none;" vertex="1" parent="YBfaTymSBxBAk-N4L25q-881">
          <mxGeometry x="3621.9999999999995" y="403" width="90" height="60" as="geometry" />
        </mxCell>
        <mxCell id="YBfaTymSBxBAk-N4L25q-981" value="1" style="text;html=1;align=center;verticalAlign=middle;resizable=0;points=[];autosize=1;strokeColor=none;fillColor=none;fontSize=40;" vertex="1" parent="YBfaTymSBxBAk-N4L25q-881">
          <mxGeometry x="2792.9999999999995" y="333" width="50" height="60" as="geometry" />
        </mxCell>
        <mxCell id="YBfaTymSBxBAk-N4L25q-982" value="1" style="text;html=1;align=center;verticalAlign=middle;resizable=0;points=[];autosize=1;strokeColor=none;fillColor=none;fontSize=40;" vertex="1" parent="YBfaTymSBxBAk-N4L25q-881">
          <mxGeometry x="2792.9999999999995" y="413" width="50" height="60" as="geometry" />
        </mxCell>
        <mxCell id="YBfaTymSBxBAk-N4L25q-988" value="&lt;font style=&quot;font-size: 40px;&quot;&gt;null&lt;/font&gt;" style="text;html=1;align=center;verticalAlign=middle;resizable=0;points=[];autosize=1;strokeColor=none;fillColor=none;" vertex="1" parent="YBfaTymSBxBAk-N4L25q-881">
          <mxGeometry x="2792.9999999999995" y="190" width="90" height="60" as="geometry" />
        </mxCell>
        <mxCell id="YBfaTymSBxBAk-N4L25q-938" value="" style="group;fontSize=30;" vertex="1" connectable="0" parent="YBfaTymSBxBAk-N4L25q-881">
          <mxGeometry x="2369.9999999999995" y="20" width="290" height="910" as="geometry" />
        </mxCell>
        <mxCell id="YBfaTymSBxBAk-N4L25q-939" value="" style="rounded=1;whiteSpace=wrap;html=1;fillColor=#dae8fc;strokeColor=#6c8ebf;fontSize=30;" vertex="1" parent="YBfaTymSBxBAk-N4L25q-938">
          <mxGeometry width="290" height="910" as="geometry" />
        </mxCell>
        <mxCell id="YBfaTymSBxBAk-N4L25q-940" value="o3" style="rounded=1;whiteSpace=wrap;html=1;fillColor=#f8cecc;strokeColor=#b85450;fontSize=30;" vertex="1" parent="YBfaTymSBxBAk-N4L25q-938">
          <mxGeometry x="70" y="670" width="160" height="90" as="geometry" />
        </mxCell>
        <mxCell id="YBfaTymSBxBAk-N4L25q-941" value="" style="rounded=0;whiteSpace=wrap;html=1;fillColor=#d5e8d4;strokeColor=#82b366;fontSize=30;" vertex="1" parent="YBfaTymSBxBAk-N4L25q-938">
          <mxGeometry x="64.99999999999955" y="550" width="160" height="80" as="geometry" />
        </mxCell>
        <mxCell id="YBfaTymSBxBAk-N4L25q-942" value="3.0" style="rounded=1;whiteSpace=wrap;html=1;fillColor=#fff2cc;strokeColor=#d6b656;fontSize=30;" vertex="1" parent="YBfaTymSBxBAk-N4L25q-938">
          <mxGeometry x="70" y="800" width="160" height="90" as="geometry" />
        </mxCell>
        <mxCell id="YBfaTymSBxBAk-N4L25q-943" value="" style="group;fontSize=30;" vertex="1" connectable="0" parent="YBfaTymSBxBAk-N4L25q-938">
          <mxGeometry x="60" y="110" width="160.00000000000045" height="400" as="geometry" />
        </mxCell>
        <mxCell id="YBfaTymSBxBAk-N4L25q-944" value="" style="group;fontSize=30;" vertex="1" connectable="0" parent="YBfaTymSBxBAk-N4L25q-943">
          <mxGeometry width="160.00000000000045" height="240" as="geometry" />
        </mxCell>
        <mxCell id="YBfaTymSBxBAk-N4L25q-945" value="" style="group;fontSize=30;" vertex="1" connectable="0" parent="YBfaTymSBxBAk-N4L25q-944">
          <mxGeometry x="4.547473508864641e-13" width="160" height="160" as="geometry" />
        </mxCell>
        <mxCell id="YBfaTymSBxBAk-N4L25q-946" value="" style="rounded=0;whiteSpace=wrap;html=1;fontSize=30;" vertex="1" parent="YBfaTymSBxBAk-N4L25q-945">
          <mxGeometry width="160" height="80" as="geometry" />
        </mxCell>
        <mxCell id="YBfaTymSBxBAk-N4L25q-947" style="edgeStyle=orthogonalEdgeStyle;rounded=0;orthogonalLoop=1;jettySize=auto;html=1;strokeWidth=5;" edge="1" parent="YBfaTymSBxBAk-N4L25q-945" source="YBfaTymSBxBAk-N4L25q-948">
          <mxGeometry relative="1" as="geometry">
            <mxPoint x="349.99999999999955" y="120" as="targetPoint" />
          </mxGeometry>
        </mxCell>
        <mxCell id="YBfaTymSBxBAk-N4L25q-948" value="" style="rounded=0;whiteSpace=wrap;html=1;fontSize=30;" vertex="1" parent="YBfaTymSBxBAk-N4L25q-945">
          <mxGeometry y="80" width="160" height="80" as="geometry" />
        </mxCell>
        <mxCell id="YBfaTymSBxBAk-N4L25q-949" style="edgeStyle=orthogonalEdgeStyle;rounded=0;orthogonalLoop=1;jettySize=auto;html=1;strokeWidth=5;" edge="1" parent="YBfaTymSBxBAk-N4L25q-944" source="YBfaTymSBxBAk-N4L25q-950">
          <mxGeometry relative="1" as="geometry">
            <mxPoint x="340" y="200" as="targetPoint" />
          </mxGeometry>
        </mxCell>
        <mxCell id="YBfaTymSBxBAk-N4L25q-950" value="" style="rounded=0;whiteSpace=wrap;html=1;fontSize=30;" vertex="1" parent="YBfaTymSBxBAk-N4L25q-944">
          <mxGeometry y="160" width="160" height="80" as="geometry" />
        </mxCell>
        <mxCell id="YBfaTymSBxBAk-N4L25q-951" value="" style="group;fontSize=30;" vertex="1" connectable="0" parent="YBfaTymSBxBAk-N4L25q-943">
          <mxGeometry y="240" width="160" height="160" as="geometry" />
        </mxCell>
        <mxCell id="YBfaTymSBxBAk-N4L25q-952" value="" style="rounded=0;whiteSpace=wrap;html=1;fontSize=30;" vertex="1" parent="YBfaTymSBxBAk-N4L25q-951">
          <mxGeometry width="160" height="80" as="geometry" />
        </mxCell>
        <mxCell id="YBfaTymSBxBAk-N4L25q-953" value="" style="rounded=0;whiteSpace=wrap;html=1;fontSize=30;" vertex="1" parent="YBfaTymSBxBAk-N4L25q-951">
          <mxGeometry y="80" width="160" height="80" as="geometry" />
        </mxCell>
        <mxCell id="YBfaTymSBxBAk-N4L25q-984" style="edgeStyle=orthogonalEdgeStyle;rounded=0;orthogonalLoop=1;jettySize=auto;html=1;strokeWidth=5;" edge="1" parent="YBfaTymSBxBAk-N4L25q-881" source="YBfaTymSBxBAk-N4L25q-946">
          <mxGeometry relative="1" as="geometry">
            <mxPoint x="2809.9999999999995" y="170" as="targetPoint" />
          </mxGeometry>
        </mxCell>
        <mxCell id="YBfaTymSBxBAk-N4L25q-921" value="" style="group;fontSize=30;" vertex="1" connectable="0" parent="YBfaTymSBxBAk-N4L25q-881">
          <mxGeometry x="1599.9999999999995" y="10" width="410" height="910" as="geometry" />
        </mxCell>
        <mxCell id="YBfaTymSBxBAk-N4L25q-922" value="" style="rounded=1;whiteSpace=wrap;html=1;fillColor=#dae8fc;strokeColor=#6c8ebf;fontSize=30;" vertex="1" parent="YBfaTymSBxBAk-N4L25q-921">
          <mxGeometry width="290" height="910" as="geometry" />
        </mxCell>
        <mxCell id="YBfaTymSBxBAk-N4L25q-923" value="o2" style="rounded=1;whiteSpace=wrap;html=1;fillColor=#f8cecc;strokeColor=#b85450;fontSize=30;" vertex="1" parent="YBfaTymSBxBAk-N4L25q-921">
          <mxGeometry x="70" y="670" width="160" height="90" as="geometry" />
        </mxCell>
        <mxCell id="YBfaTymSBxBAk-N4L25q-924" value="" style="rounded=0;whiteSpace=wrap;html=1;fillColor=#d5e8d4;strokeColor=#82b366;fontSize=30;" vertex="1" parent="YBfaTymSBxBAk-N4L25q-921">
          <mxGeometry x="64.99999999999955" y="550" width="160" height="80" as="geometry" />
        </mxCell>
        <mxCell id="YBfaTymSBxBAk-N4L25q-925" value="2.0" style="rounded=1;whiteSpace=wrap;html=1;fillColor=#fff2cc;strokeColor=#d6b656;fontSize=30;" vertex="1" parent="YBfaTymSBxBAk-N4L25q-921">
          <mxGeometry x="70" y="800" width="160" height="90" as="geometry" />
        </mxCell>
        <mxCell id="YBfaTymSBxBAk-N4L25q-926" value="" style="group;fontSize=30;" vertex="1" connectable="0" parent="YBfaTymSBxBAk-N4L25q-921">
          <mxGeometry x="59.999999999999545" y="350" width="160" height="160" as="geometry" />
        </mxCell>
        <mxCell id="YBfaTymSBxBAk-N4L25q-927" style="edgeStyle=orthogonalEdgeStyle;rounded=0;orthogonalLoop=1;jettySize=auto;html=1;exitX=0.5;exitY=1;exitDx=0;exitDy=0;" edge="1" parent="YBfaTymSBxBAk-N4L25q-926" source="YBfaTymSBxBAk-N4L25q-928" target="YBfaTymSBxBAk-N4L25q-929">
          <mxGeometry relative="1" as="geometry" />
        </mxCell>
        <mxCell id="YBfaTymSBxBAk-N4L25q-928" value="" style="rounded=0;whiteSpace=wrap;html=1;fontSize=30;" vertex="1" parent="YBfaTymSBxBAk-N4L25q-926">
          <mxGeometry width="160" height="80" as="geometry" />
        </mxCell>
        <mxCell id="YBfaTymSBxBAk-N4L25q-929" value="" style="rounded=0;whiteSpace=wrap;html=1;fontSize=30;" vertex="1" parent="YBfaTymSBxBAk-N4L25q-926">
          <mxGeometry y="80" width="160" height="80" as="geometry" />
        </mxCell>
        <mxCell id="YBfaTymSBxBAk-N4L25q-820" value="" style="group" vertex="1" connectable="0" parent="YBfaTymSBxBAk-N4L25q-881">
          <mxGeometry x="1979.9999999999995" y="10" width="290" height="910" as="geometry" />
        </mxCell>
        <mxCell id="YBfaTymSBxBAk-N4L25q-821" value="" style="rounded=1;whiteSpace=wrap;html=1;fillColor=#dae8fc;strokeColor=#6c8ebf;fontSize=30;" vertex="1" parent="YBfaTymSBxBAk-N4L25q-820">
          <mxGeometry width="290" height="910" as="geometry" />
        </mxCell>
        <mxCell id="YBfaTymSBxBAk-N4L25q-822" value="o5" style="rounded=1;whiteSpace=wrap;html=1;fillColor=#f8cecc;strokeColor=#b85450;fontSize=30;" vertex="1" parent="YBfaTymSBxBAk-N4L25q-820">
          <mxGeometry x="70" y="680" width="160" height="90" as="geometry" />
        </mxCell>
        <mxCell id="YBfaTymSBxBAk-N4L25q-823" value="" style="rounded=0;whiteSpace=wrap;html=1;fillColor=#d5e8d4;strokeColor=#82b366;fontSize=30;" vertex="1" parent="YBfaTymSBxBAk-N4L25q-820">
          <mxGeometry x="64.99999999999955" y="560" width="160" height="80" as="geometry" />
        </mxCell>
        <mxCell id="YBfaTymSBxBAk-N4L25q-824" value="2.5" style="rounded=1;whiteSpace=wrap;html=1;fillColor=#fff2cc;strokeColor=#d6b656;fontSize=30;" vertex="1" parent="YBfaTymSBxBAk-N4L25q-820">
          <mxGeometry x="70" y="810" width="160" height="90" as="geometry" />
        </mxCell>
        <mxCell id="YBfaTymSBxBAk-N4L25q-825" value="" style="group;fontSize=30;" vertex="1" connectable="0" parent="YBfaTymSBxBAk-N4L25q-820">
          <mxGeometry x="70" y="250" width="160.00000000000045" height="240" as="geometry" />
        </mxCell>
        <mxCell id="YBfaTymSBxBAk-N4L25q-826" value="" style="group;fontSize=30;" vertex="1" connectable="0" parent="YBfaTymSBxBAk-N4L25q-825">
          <mxGeometry x="4.547473508864641e-13" width="160" height="160" as="geometry" />
        </mxCell>
        <mxCell id="YBfaTymSBxBAk-N4L25q-827" value="" style="rounded=0;whiteSpace=wrap;html=1;fontSize=30;" vertex="1" parent="YBfaTymSBxBAk-N4L25q-826">
          <mxGeometry width="160" height="80" as="geometry" />
        </mxCell>
        <mxCell id="YBfaTymSBxBAk-N4L25q-828" value="" style="rounded=0;whiteSpace=wrap;html=1;fontSize=30;" vertex="1" parent="YBfaTymSBxBAk-N4L25q-826">
          <mxGeometry y="80" width="160" height="80" as="geometry" />
        </mxCell>
        <mxCell id="YBfaTymSBxBAk-N4L25q-829" value="" style="rounded=0;whiteSpace=wrap;html=1;fontSize=30;" vertex="1" parent="YBfaTymSBxBAk-N4L25q-825">
          <mxGeometry y="160" width="160" height="80" as="geometry" />
        </mxCell>
        <mxCell id="YBfaTymSBxBAk-N4L25q-1561" style="edgeStyle=orthogonalEdgeStyle;rounded=0;orthogonalLoop=1;jettySize=auto;html=1;entryX=-0.02;entryY=0.322;entryDx=0;entryDy=0;entryPerimeter=0;" edge="1" parent="YBfaTymSBxBAk-N4L25q-881" source="YBfaTymSBxBAk-N4L25q-827" target="YBfaTymSBxBAk-N4L25q-939">
          <mxGeometry relative="1" as="geometry" />
        </mxCell>
        <mxCell id="YBfaTymSBxBAk-N4L25q-1562" style="edgeStyle=orthogonalEdgeStyle;rounded=0;orthogonalLoop=1;jettySize=auto;html=1;" edge="1" parent="YBfaTymSBxBAk-N4L25q-881" source="YBfaTymSBxBAk-N4L25q-828" target="YBfaTymSBxBAk-N4L25q-939">
          <mxGeometry relative="1" as="geometry" />
        </mxCell>
        <mxCell id="YBfaTymSBxBAk-N4L25q-1205" value="" style="group" vertex="1" connectable="0" parent="1">
          <mxGeometry x="100.00000000000045" y="1350" width="3369.9999999999995" height="1280" as="geometry" />
        </mxCell>
        <mxCell id="YBfaTymSBxBAk-N4L25q-1206" value="" style="group;fontSize=30;" vertex="1" connectable="0" parent="YBfaTymSBxBAk-N4L25q-1205">
          <mxGeometry y="960" width="160" height="320" as="geometry" />
        </mxCell>
        <mxCell id="YBfaTymSBxBAk-N4L25q-1207" value="" style="group;fontSize=30;" vertex="1" connectable="0" parent="YBfaTymSBxBAk-N4L25q-1206">
          <mxGeometry width="160" height="160" as="geometry" />
        </mxCell>
        <mxCell id="YBfaTymSBxBAk-N4L25q-1208" value="header" style="rounded=0;whiteSpace=wrap;html=1;fontSize=30;" vertex="1" parent="YBfaTymSBxBAk-N4L25q-1207">
          <mxGeometry width="160" height="80" as="geometry" />
        </mxCell>
        <mxCell id="YBfaTymSBxBAk-N4L25q-1209" value="tail" style="rounded=0;whiteSpace=wrap;html=1;fontSize=30;" vertex="1" parent="YBfaTymSBxBAk-N4L25q-1207">
          <mxGeometry y="80" width="160" height="80" as="geometry" />
        </mxCell>
        <mxCell id="YBfaTymSBxBAk-N4L25q-1210" value="" style="group;fontSize=30;" vertex="1" connectable="0" parent="YBfaTymSBxBAk-N4L25q-1206">
          <mxGeometry y="160" width="160" height="160" as="geometry" />
        </mxCell>
        <mxCell id="YBfaTymSBxBAk-N4L25q-1211" value="level&lt;br&gt;5" style="rounded=0;whiteSpace=wrap;html=1;fontSize=30;" vertex="1" parent="YBfaTymSBxBAk-N4L25q-1210">
          <mxGeometry width="160" height="80" as="geometry" />
        </mxCell>
        <mxCell id="YBfaTymSBxBAk-N4L25q-1212" value="length&lt;br&gt;3" style="rounded=0;whiteSpace=wrap;html=1;fontSize=30;" vertex="1" parent="YBfaTymSBxBAk-N4L25q-1210">
          <mxGeometry y="80" width="160" height="80" as="geometry" />
        </mxCell>
        <mxCell id="YBfaTymSBxBAk-N4L25q-1213" style="edgeStyle=orthogonalEdgeStyle;rounded=0;orthogonalLoop=1;jettySize=auto;html=1;entryX=0;entryY=0.5;entryDx=0;entryDy=0;strokeWidth=5;" edge="1" parent="YBfaTymSBxBAk-N4L25q-1205" source="YBfaTymSBxBAk-N4L25q-1208" target="YBfaTymSBxBAk-N4L25q-1230">
          <mxGeometry relative="1" as="geometry">
            <mxPoint x="369.99999999999955" y="460" as="targetPoint" />
          </mxGeometry>
        </mxCell>
        <mxCell id="YBfaTymSBxBAk-N4L25q-1214" value="" style="group;fontSize=30;" vertex="1" connectable="0" parent="YBfaTymSBxBAk-N4L25q-1205">
          <mxGeometry x="1049.9999999999995" y="20" width="290" height="910" as="geometry" />
        </mxCell>
        <mxCell id="YBfaTymSBxBAk-N4L25q-1215" value="" style="rounded=1;whiteSpace=wrap;html=1;fillColor=#dae8fc;strokeColor=#6c8ebf;fontSize=30;" vertex="1" parent="YBfaTymSBxBAk-N4L25q-1214">
          <mxGeometry width="290" height="910" as="geometry" />
        </mxCell>
        <mxCell id="YBfaTymSBxBAk-N4L25q-1216" value="o1" style="rounded=1;whiteSpace=wrap;html=1;fillColor=#f8cecc;strokeColor=#b85450;fontSize=30;" vertex="1" parent="YBfaTymSBxBAk-N4L25q-1214">
          <mxGeometry x="70" y="680" width="160" height="90" as="geometry" />
        </mxCell>
        <mxCell id="YBfaTymSBxBAk-N4L25q-1217" style="edgeStyle=orthogonalEdgeStyle;rounded=0;orthogonalLoop=1;jettySize=auto;html=1;strokeWidth=5;" edge="1" parent="YBfaTymSBxBAk-N4L25q-1214" source="YBfaTymSBxBAk-N4L25q-1219">
          <mxGeometry relative="1" as="geometry">
            <mxPoint x="-50" y="600" as="targetPoint" />
          </mxGeometry>
        </mxCell>
        <mxCell id="YBfaTymSBxBAk-N4L25q-1218" value="&lt;font style=&quot;font-size: 30px;&quot;&gt;null&lt;/font&gt;" style="edgeLabel;html=1;align=center;verticalAlign=middle;resizable=0;points=[];" vertex="1" connectable="0" parent="YBfaTymSBxBAk-N4L25q-1217">
          <mxGeometry x="0.7598" y="-3" relative="1" as="geometry">
            <mxPoint x="-54" y="3" as="offset" />
          </mxGeometry>
        </mxCell>
        <mxCell id="YBfaTymSBxBAk-N4L25q-1219" value="" style="rounded=0;whiteSpace=wrap;html=1;fillColor=#d5e8d4;strokeColor=#82b366;fontSize=30;" vertex="1" parent="YBfaTymSBxBAk-N4L25q-1214">
          <mxGeometry x="69.99999999999955" y="560" width="160" height="80" as="geometry" />
        </mxCell>
        <mxCell id="YBfaTymSBxBAk-N4L25q-1220" value="1.0" style="rounded=1;whiteSpace=wrap;html=1;fillColor=#fff2cc;strokeColor=#d6b656;fontSize=30;" vertex="1" parent="YBfaTymSBxBAk-N4L25q-1214">
          <mxGeometry x="70" y="800" width="160" height="90" as="geometry" />
        </mxCell>
        <mxCell id="YBfaTymSBxBAk-N4L25q-1221" value="" style="group;fontSize=30;" vertex="1" connectable="0" parent="YBfaTymSBxBAk-N4L25q-1214">
          <mxGeometry x="70" y="120" width="160.00000000000045" height="400" as="geometry" />
        </mxCell>
        <mxCell id="YBfaTymSBxBAk-N4L25q-1222" value="" style="group;fontSize=30;" vertex="1" connectable="0" parent="YBfaTymSBxBAk-N4L25q-1221">
          <mxGeometry width="160.00000000000045" height="240" as="geometry" />
        </mxCell>
        <mxCell id="YBfaTymSBxBAk-N4L25q-1223" value="" style="group;fontSize=30;" vertex="1" connectable="0" parent="YBfaTymSBxBAk-N4L25q-1222">
          <mxGeometry x="4.547473508864641e-13" width="160" height="160" as="geometry" />
        </mxCell>
        <mxCell id="YBfaTymSBxBAk-N4L25q-1224" value="" style="rounded=0;whiteSpace=wrap;html=1;fontSize=30;" vertex="1" parent="YBfaTymSBxBAk-N4L25q-1223">
          <mxGeometry y="80" width="160" height="80" as="geometry" />
        </mxCell>
        <mxCell id="YBfaTymSBxBAk-N4L25q-1225" value="" style="rounded=0;whiteSpace=wrap;html=1;fontSize=30;" vertex="1" parent="YBfaTymSBxBAk-N4L25q-1222">
          <mxGeometry y="160" width="160" height="80" as="geometry" />
        </mxCell>
        <mxCell id="YBfaTymSBxBAk-N4L25q-1226" value="" style="group;fontSize=30;" vertex="1" connectable="0" parent="YBfaTymSBxBAk-N4L25q-1221">
          <mxGeometry y="240" width="160" height="160" as="geometry" />
        </mxCell>
        <mxCell id="YBfaTymSBxBAk-N4L25q-1227" value="" style="rounded=0;whiteSpace=wrap;html=1;fontSize=30;" vertex="1" parent="YBfaTymSBxBAk-N4L25q-1226">
          <mxGeometry width="160" height="80" as="geometry" />
        </mxCell>
        <mxCell id="YBfaTymSBxBAk-N4L25q-1228" value="" style="rounded=0;whiteSpace=wrap;html=1;fontSize=30;" vertex="1" parent="YBfaTymSBxBAk-N4L25q-1226">
          <mxGeometry y="80" width="160" height="80" as="geometry" />
        </mxCell>
        <mxCell id="YBfaTymSBxBAk-N4L25q-1229" value="" style="group;fontSize=30;" vertex="1" connectable="0" parent="YBfaTymSBxBAk-N4L25q-1205">
          <mxGeometry x="469.99999999999955" y="20" width="290" height="910" as="geometry" />
        </mxCell>
        <mxCell id="YBfaTymSBxBAk-N4L25q-1230" value="" style="rounded=1;whiteSpace=wrap;html=1;fillColor=#dae8fc;strokeColor=#6c8ebf;fontSize=30;" vertex="1" parent="YBfaTymSBxBAk-N4L25q-1229">
          <mxGeometry width="290" height="910" as="geometry" />
        </mxCell>
        <mxCell id="YBfaTymSBxBAk-N4L25q-1231" value="null" style="rounded=1;whiteSpace=wrap;html=1;fillColor=#f8cecc;strokeColor=#b85450;fontSize=30;" vertex="1" parent="YBfaTymSBxBAk-N4L25q-1229">
          <mxGeometry x="70" y="670" width="160" height="90" as="geometry" />
        </mxCell>
        <mxCell id="YBfaTymSBxBAk-N4L25q-1232" value="null" style="rounded=0;whiteSpace=wrap;html=1;fillColor=#d5e8d4;strokeColor=#82b366;fontSize=30;" vertex="1" parent="YBfaTymSBxBAk-N4L25q-1229">
          <mxGeometry x="64.99999999999955" y="550" width="160" height="80" as="geometry" />
        </mxCell>
        <mxCell id="YBfaTymSBxBAk-N4L25q-1233" value="null" style="rounded=1;whiteSpace=wrap;html=1;fillColor=#fff2cc;strokeColor=#d6b656;fontSize=30;" vertex="1" parent="YBfaTymSBxBAk-N4L25q-1229">
          <mxGeometry x="70" y="800" width="160" height="90" as="geometry" />
        </mxCell>
        <mxCell id="YBfaTymSBxBAk-N4L25q-1234" value="" style="group;fontSize=30;" vertex="1" connectable="0" parent="YBfaTymSBxBAk-N4L25q-1229">
          <mxGeometry x="65" y="40" width="160.00000000000045" height="480" as="geometry" />
        </mxCell>
        <mxCell id="YBfaTymSBxBAk-N4L25q-1235" value="" style="group;fontSize=30;" vertex="1" connectable="0" parent="YBfaTymSBxBAk-N4L25q-1234">
          <mxGeometry width="160.00000000000045" height="240" as="geometry" />
        </mxCell>
        <mxCell id="YBfaTymSBxBAk-N4L25q-1236" value="" style="group;fontSize=30;" vertex="1" connectable="0" parent="YBfaTymSBxBAk-N4L25q-1235">
          <mxGeometry x="4.547473508864641e-13" width="160" height="160" as="geometry" />
        </mxCell>
        <mxCell id="YBfaTymSBxBAk-N4L25q-1237" value="...L32" style="rounded=0;whiteSpace=wrap;html=1;fontSize=30;" vertex="1" parent="YBfaTymSBxBAk-N4L25q-1236">
          <mxGeometry width="160" height="80" as="geometry" />
        </mxCell>
        <mxCell id="YBfaTymSBxBAk-N4L25q-1238" value="L5" style="rounded=0;whiteSpace=wrap;html=1;fontSize=30;" vertex="1" parent="YBfaTymSBxBAk-N4L25q-1236">
          <mxGeometry y="80" width="160" height="80" as="geometry" />
        </mxCell>
        <mxCell id="YBfaTymSBxBAk-N4L25q-1239" value="L4" style="rounded=0;whiteSpace=wrap;html=1;fontSize=30;" vertex="1" parent="YBfaTymSBxBAk-N4L25q-1235">
          <mxGeometry y="160" width="160" height="80" as="geometry" />
        </mxCell>
        <mxCell id="YBfaTymSBxBAk-N4L25q-1240" value="" style="group;fontSize=30;" vertex="1" connectable="0" parent="YBfaTymSBxBAk-N4L25q-1234">
          <mxGeometry y="240" width="160.00000000000045" height="240" as="geometry" />
        </mxCell>
        <mxCell id="YBfaTymSBxBAk-N4L25q-1241" value="" style="group;fontSize=30;" vertex="1" connectable="0" parent="YBfaTymSBxBAk-N4L25q-1240">
          <mxGeometry x="4.547473508864641e-13" width="160" height="160" as="geometry" />
        </mxCell>
        <mxCell id="YBfaTymSBxBAk-N4L25q-1242" value="L3" style="rounded=0;whiteSpace=wrap;html=1;fontSize=30;" vertex="1" parent="YBfaTymSBxBAk-N4L25q-1241">
          <mxGeometry width="160" height="80" as="geometry" />
        </mxCell>
        <mxCell id="YBfaTymSBxBAk-N4L25q-1243" value="L2" style="rounded=0;whiteSpace=wrap;html=1;fontSize=30;" vertex="1" parent="YBfaTymSBxBAk-N4L25q-1241">
          <mxGeometry y="80" width="160" height="80" as="geometry" />
        </mxCell>
        <mxCell id="YBfaTymSBxBAk-N4L25q-1244" value="L1" style="rounded=0;whiteSpace=wrap;html=1;fontSize=30;" vertex="1" parent="YBfaTymSBxBAk-N4L25q-1240">
          <mxGeometry y="160" width="160" height="80" as="geometry" />
        </mxCell>
        <mxCell id="YBfaTymSBxBAk-N4L25q-1245" value="" style="group;fontSize=30;" vertex="1" connectable="0" parent="YBfaTymSBxBAk-N4L25q-1205">
          <mxGeometry x="1589.9999999999995" y="20" width="410" height="910" as="geometry" />
        </mxCell>
        <mxCell id="YBfaTymSBxBAk-N4L25q-1246" value="" style="rounded=1;whiteSpace=wrap;html=1;fillColor=#dae8fc;strokeColor=#6c8ebf;fontSize=30;" vertex="1" parent="YBfaTymSBxBAk-N4L25q-1245">
          <mxGeometry width="290" height="910" as="geometry" />
        </mxCell>
        <mxCell id="YBfaTymSBxBAk-N4L25q-1247" value="o2" style="rounded=1;whiteSpace=wrap;html=1;fillColor=#f8cecc;strokeColor=#b85450;fontSize=30;" vertex="1" parent="YBfaTymSBxBAk-N4L25q-1245">
          <mxGeometry x="70" y="670" width="160" height="90" as="geometry" />
        </mxCell>
        <mxCell id="YBfaTymSBxBAk-N4L25q-1248" value="" style="rounded=0;whiteSpace=wrap;html=1;fillColor=#d5e8d4;strokeColor=#82b366;fontSize=30;" vertex="1" parent="YBfaTymSBxBAk-N4L25q-1245">
          <mxGeometry x="64.99999999999955" y="550" width="160" height="80" as="geometry" />
        </mxCell>
        <mxCell id="YBfaTymSBxBAk-N4L25q-1249" value="2.0" style="rounded=1;whiteSpace=wrap;html=1;fillColor=#fff2cc;strokeColor=#d6b656;fontSize=30;" vertex="1" parent="YBfaTymSBxBAk-N4L25q-1245">
          <mxGeometry x="70" y="800" width="160" height="90" as="geometry" />
        </mxCell>
        <mxCell id="YBfaTymSBxBAk-N4L25q-1250" value="" style="group;fontSize=30;" vertex="1" connectable="0" parent="YBfaTymSBxBAk-N4L25q-1245">
          <mxGeometry x="59.999999999999545" y="350" width="160" height="160" as="geometry" />
        </mxCell>
        <mxCell id="YBfaTymSBxBAk-N4L25q-1251" style="edgeStyle=orthogonalEdgeStyle;rounded=0;orthogonalLoop=1;jettySize=auto;html=1;exitX=0.5;exitY=1;exitDx=0;exitDy=0;" edge="1" parent="YBfaTymSBxBAk-N4L25q-1250" source="YBfaTymSBxBAk-N4L25q-1252" target="YBfaTymSBxBAk-N4L25q-1253">
          <mxGeometry relative="1" as="geometry" />
        </mxCell>
        <mxCell id="YBfaTymSBxBAk-N4L25q-1252" value="" style="rounded=0;whiteSpace=wrap;html=1;fontSize=30;" vertex="1" parent="YBfaTymSBxBAk-N4L25q-1250">
          <mxGeometry width="160" height="80" as="geometry" />
        </mxCell>
        <mxCell id="YBfaTymSBxBAk-N4L25q-1253" value="" style="rounded=0;whiteSpace=wrap;html=1;fontSize=30;" vertex="1" parent="YBfaTymSBxBAk-N4L25q-1250">
          <mxGeometry y="80" width="160" height="80" as="geometry" />
        </mxCell>
        <mxCell id="YBfaTymSBxBAk-N4L25q-1254" style="edgeStyle=orthogonalEdgeStyle;rounded=0;orthogonalLoop=1;jettySize=auto;html=1;entryX=-0.007;entryY=0.27;entryDx=0;entryDy=0;entryPerimeter=0;strokeWidth=5;" edge="1" parent="YBfaTymSBxBAk-N4L25q-1205" source="YBfaTymSBxBAk-N4L25q-1239" target="YBfaTymSBxBAk-N4L25q-1215">
          <mxGeometry relative="1" as="geometry">
            <mxPoint x="1049.9999999999995" y="270" as="targetPoint" />
          </mxGeometry>
        </mxCell>
        <mxCell id="YBfaTymSBxBAk-N4L25q-1255" value="&lt;font style=&quot;font-size: 40px;&quot;&gt;1&lt;/font&gt;" style="edgeLabel;html=1;align=center;verticalAlign=middle;resizable=0;points=[];fontSize=40;" vertex="1" connectable="0" parent="YBfaTymSBxBAk-N4L25q-1254">
          <mxGeometry x="-0.0099" y="5" relative="1" as="geometry">
            <mxPoint x="12" y="-10" as="offset" />
          </mxGeometry>
        </mxCell>
        <mxCell id="YBfaTymSBxBAk-N4L25q-1256" style="edgeStyle=orthogonalEdgeStyle;rounded=0;orthogonalLoop=1;jettySize=auto;html=1;entryX=0;entryY=0.353;entryDx=0;entryDy=0;entryPerimeter=0;strokeWidth=5;" edge="1" parent="YBfaTymSBxBAk-N4L25q-1205" source="YBfaTymSBxBAk-N4L25q-1242" target="YBfaTymSBxBAk-N4L25q-1215">
          <mxGeometry relative="1" as="geometry" />
        </mxCell>
        <mxCell id="YBfaTymSBxBAk-N4L25q-1257" value="&lt;font style=&quot;font-size: 40px;&quot;&gt;1&lt;/font&gt;" style="edgeLabel;html=1;align=center;verticalAlign=middle;resizable=0;points=[];fontSize=40;" vertex="1" connectable="0" parent="YBfaTymSBxBAk-N4L25q-1256">
          <mxGeometry x="0.2559" y="3" relative="1" as="geometry">
            <mxPoint x="1" as="offset" />
          </mxGeometry>
        </mxCell>
        <mxCell id="YBfaTymSBxBAk-N4L25q-1258" style="edgeStyle=orthogonalEdgeStyle;rounded=0;orthogonalLoop=1;jettySize=auto;html=1;entryX=0;entryY=0.44;entryDx=0;entryDy=0;entryPerimeter=0;strokeWidth=5;" edge="1" parent="YBfaTymSBxBAk-N4L25q-1205" source="YBfaTymSBxBAk-N4L25q-1243" target="YBfaTymSBxBAk-N4L25q-1215">
          <mxGeometry relative="1" as="geometry" />
        </mxCell>
        <mxCell id="YBfaTymSBxBAk-N4L25q-1259" style="edgeStyle=orthogonalEdgeStyle;rounded=0;orthogonalLoop=1;jettySize=auto;html=1;entryX=-0.021;entryY=0.525;entryDx=0;entryDy=0;entryPerimeter=0;strokeWidth=5;" edge="1" parent="YBfaTymSBxBAk-N4L25q-1205" source="YBfaTymSBxBAk-N4L25q-1244" target="YBfaTymSBxBAk-N4L25q-1215">
          <mxGeometry relative="1" as="geometry" />
        </mxCell>
        <mxCell id="YBfaTymSBxBAk-N4L25q-1260" style="edgeStyle=orthogonalEdgeStyle;rounded=0;orthogonalLoop=1;jettySize=auto;html=1;entryX=0.001;entryY=0.529;entryDx=0;entryDy=0;entryPerimeter=0;strokeWidth=5;" edge="1" parent="YBfaTymSBxBAk-N4L25q-1205" source="YBfaTymSBxBAk-N4L25q-1228" target="YBfaTymSBxBAk-N4L25q-1246">
          <mxGeometry relative="1" as="geometry" />
        </mxCell>
        <mxCell id="YBfaTymSBxBAk-N4L25q-1261" style="edgeStyle=orthogonalEdgeStyle;rounded=0;orthogonalLoop=1;jettySize=auto;html=1;entryX=-0.008;entryY=0.436;entryDx=0;entryDy=0;entryPerimeter=0;strokeWidth=5;" edge="1" parent="YBfaTymSBxBAk-N4L25q-1205" source="YBfaTymSBxBAk-N4L25q-1227" target="YBfaTymSBxBAk-N4L25q-1246">
          <mxGeometry relative="1" as="geometry" />
        </mxCell>
        <mxCell id="YBfaTymSBxBAk-N4L25q-1262" value="" style="group;fontSize=30;" vertex="1" connectable="0" parent="YBfaTymSBxBAk-N4L25q-1205">
          <mxGeometry x="2119.9999999999995" y="20" width="290" height="910" as="geometry" />
        </mxCell>
        <mxCell id="YBfaTymSBxBAk-N4L25q-1263" value="" style="rounded=1;whiteSpace=wrap;html=1;fillColor=#dae8fc;strokeColor=#6c8ebf;fontSize=30;" vertex="1" parent="YBfaTymSBxBAk-N4L25q-1262">
          <mxGeometry width="290" height="910" as="geometry" />
        </mxCell>
        <mxCell id="YBfaTymSBxBAk-N4L25q-1264" value="o3" style="rounded=1;whiteSpace=wrap;html=1;fillColor=#f8cecc;strokeColor=#b85450;fontSize=30;" vertex="1" parent="YBfaTymSBxBAk-N4L25q-1262">
          <mxGeometry x="70" y="670" width="160" height="90" as="geometry" />
        </mxCell>
        <mxCell id="YBfaTymSBxBAk-N4L25q-1265" value="" style="rounded=0;whiteSpace=wrap;html=1;fillColor=#d5e8d4;strokeColor=#82b366;fontSize=30;" vertex="1" parent="YBfaTymSBxBAk-N4L25q-1262">
          <mxGeometry x="64.99999999999955" y="550" width="160" height="80" as="geometry" />
        </mxCell>
        <mxCell id="YBfaTymSBxBAk-N4L25q-1266" value="3.0" style="rounded=1;whiteSpace=wrap;html=1;fillColor=#fff2cc;strokeColor=#d6b656;fontSize=30;" vertex="1" parent="YBfaTymSBxBAk-N4L25q-1262">
          <mxGeometry x="70" y="800" width="160" height="90" as="geometry" />
        </mxCell>
        <mxCell id="YBfaTymSBxBAk-N4L25q-1267" value="" style="group;fontSize=30;" vertex="1" connectable="0" parent="YBfaTymSBxBAk-N4L25q-1262">
          <mxGeometry x="60" y="110" width="160.00000000000045" height="400" as="geometry" />
        </mxCell>
        <mxCell id="YBfaTymSBxBAk-N4L25q-1268" value="" style="group;fontSize=30;" vertex="1" connectable="0" parent="YBfaTymSBxBAk-N4L25q-1267">
          <mxGeometry width="160.00000000000045" height="240" as="geometry" />
        </mxCell>
        <mxCell id="YBfaTymSBxBAk-N4L25q-1269" value="" style="group;fontSize=30;" vertex="1" connectable="0" parent="YBfaTymSBxBAk-N4L25q-1268">
          <mxGeometry x="4.547473508864641e-13" width="160" height="160" as="geometry" />
        </mxCell>
        <mxCell id="YBfaTymSBxBAk-N4L25q-1270" value="" style="rounded=0;whiteSpace=wrap;html=1;fontSize=30;" vertex="1" parent="YBfaTymSBxBAk-N4L25q-1269">
          <mxGeometry width="160" height="80" as="geometry" />
        </mxCell>
        <mxCell id="YBfaTymSBxBAk-N4L25q-1271" style="edgeStyle=orthogonalEdgeStyle;rounded=0;orthogonalLoop=1;jettySize=auto;html=1;strokeWidth=5;" edge="1" parent="YBfaTymSBxBAk-N4L25q-1269" source="YBfaTymSBxBAk-N4L25q-1272">
          <mxGeometry relative="1" as="geometry">
            <mxPoint x="349.99999999999955" y="120" as="targetPoint" />
          </mxGeometry>
        </mxCell>
        <mxCell id="YBfaTymSBxBAk-N4L25q-1272" value="" style="rounded=0;whiteSpace=wrap;html=1;fontSize=30;" vertex="1" parent="YBfaTymSBxBAk-N4L25q-1269">
          <mxGeometry y="80" width="160" height="80" as="geometry" />
        </mxCell>
        <mxCell id="YBfaTymSBxBAk-N4L25q-1273" style="edgeStyle=orthogonalEdgeStyle;rounded=0;orthogonalLoop=1;jettySize=auto;html=1;strokeWidth=5;" edge="1" parent="YBfaTymSBxBAk-N4L25q-1268" source="YBfaTymSBxBAk-N4L25q-1274">
          <mxGeometry relative="1" as="geometry">
            <mxPoint x="340" y="200" as="targetPoint" />
          </mxGeometry>
        </mxCell>
        <mxCell id="YBfaTymSBxBAk-N4L25q-1274" value="" style="rounded=0;whiteSpace=wrap;html=1;fontSize=30;" vertex="1" parent="YBfaTymSBxBAk-N4L25q-1268">
          <mxGeometry y="160" width="160" height="80" as="geometry" />
        </mxCell>
        <mxCell id="YBfaTymSBxBAk-N4L25q-1275" value="" style="group;fontSize=30;" vertex="1" connectable="0" parent="YBfaTymSBxBAk-N4L25q-1267">
          <mxGeometry y="240" width="160" height="160" as="geometry" />
        </mxCell>
        <mxCell id="YBfaTymSBxBAk-N4L25q-1276" value="" style="rounded=0;whiteSpace=wrap;html=1;fontSize=30;" vertex="1" parent="YBfaTymSBxBAk-N4L25q-1275">
          <mxGeometry width="160" height="80" as="geometry" />
        </mxCell>
        <mxCell id="YBfaTymSBxBAk-N4L25q-1277" value="" style="rounded=0;whiteSpace=wrap;html=1;fontSize=30;" vertex="1" parent="YBfaTymSBxBAk-N4L25q-1275">
          <mxGeometry y="80" width="160" height="80" as="geometry" />
        </mxCell>
        <mxCell id="YBfaTymSBxBAk-N4L25q-1278" style="edgeStyle=orthogonalEdgeStyle;rounded=0;orthogonalLoop=1;jettySize=auto;html=1;strokeWidth=5;entryX=-0.026;entryY=0.52;entryDx=0;entryDy=0;entryPerimeter=0;" edge="1" parent="YBfaTymSBxBAk-N4L25q-1205" source="YBfaTymSBxBAk-N4L25q-1253" target="YBfaTymSBxBAk-N4L25q-1263">
          <mxGeometry relative="1" as="geometry">
            <mxPoint x="2079.9999999999995" y="490" as="targetPoint" />
          </mxGeometry>
        </mxCell>
        <mxCell id="YBfaTymSBxBAk-N4L25q-1279" value="1" style="edgeLabel;html=1;align=center;verticalAlign=middle;resizable=0;points=[];fontSize=40;" vertex="1" connectable="0" parent="YBfaTymSBxBAk-N4L25q-1278">
          <mxGeometry x="0.294" y="7" relative="1" as="geometry">
            <mxPoint as="offset" />
          </mxGeometry>
        </mxCell>
        <mxCell id="YBfaTymSBxBAk-N4L25q-1280" style="edgeStyle=orthogonalEdgeStyle;rounded=0;orthogonalLoop=1;jettySize=auto;html=1;strokeWidth=5;entryX=0;entryY=0.429;entryDx=0;entryDy=0;entryPerimeter=0;" edge="1" parent="YBfaTymSBxBAk-N4L25q-1205" source="YBfaTymSBxBAk-N4L25q-1252" target="YBfaTymSBxBAk-N4L25q-1263">
          <mxGeometry relative="1" as="geometry">
            <mxPoint x="2079.9999999999995" y="410" as="targetPoint" />
          </mxGeometry>
        </mxCell>
        <mxCell id="YBfaTymSBxBAk-N4L25q-1281" style="edgeStyle=orthogonalEdgeStyle;rounded=0;orthogonalLoop=1;jettySize=auto;html=1;entryX=-0.018;entryY=0.352;entryDx=0;entryDy=0;entryPerimeter=0;strokeWidth=5;" edge="1" parent="YBfaTymSBxBAk-N4L25q-1205" source="YBfaTymSBxBAk-N4L25q-1225" target="YBfaTymSBxBAk-N4L25q-1263">
          <mxGeometry relative="1" as="geometry" />
        </mxCell>
        <mxCell id="YBfaTymSBxBAk-N4L25q-1282" value="2" style="edgeLabel;html=1;align=center;verticalAlign=middle;resizable=0;points=[];fontSize=40;" vertex="1" connectable="0" parent="YBfaTymSBxBAk-N4L25q-1281">
          <mxGeometry x="-0.6353" y="1" relative="1" as="geometry">
            <mxPoint x="2" as="offset" />
          </mxGeometry>
        </mxCell>
        <mxCell id="YBfaTymSBxBAk-N4L25q-1283" value="1" style="edgeStyle=orthogonalEdgeStyle;rounded=0;orthogonalLoop=1;jettySize=auto;html=1;entryX=0;entryY=0.253;entryDx=0;entryDy=0;entryPerimeter=0;strokeWidth=5;" edge="1" parent="YBfaTymSBxBAk-N4L25q-1205" source="YBfaTymSBxBAk-N4L25q-1224" target="YBfaTymSBxBAk-N4L25q-1263">
          <mxGeometry relative="1" as="geometry" />
        </mxCell>
        <mxCell id="YBfaTymSBxBAk-N4L25q-1284" value="&lt;span style=&quot;font-size: 40px;&quot;&gt;2&lt;/span&gt;" style="edgeLabel;html=1;align=center;verticalAlign=middle;resizable=0;points=[];fontSize=40;" vertex="1" connectable="0" parent="YBfaTymSBxBAk-N4L25q-1283">
          <mxGeometry x="-0.5957" y="2" relative="1" as="geometry">
            <mxPoint as="offset" />
          </mxGeometry>
        </mxCell>
        <mxCell id="YBfaTymSBxBAk-N4L25q-1285" style="edgeStyle=orthogonalEdgeStyle;rounded=0;orthogonalLoop=1;jettySize=auto;html=1;entryX=0;entryY=0.18;entryDx=0;entryDy=0;entryPerimeter=0;strokeWidth=5;" edge="1" parent="YBfaTymSBxBAk-N4L25q-1205" source="YBfaTymSBxBAk-N4L25q-1238" target="YBfaTymSBxBAk-N4L25q-1263">
          <mxGeometry relative="1" as="geometry" />
        </mxCell>
        <mxCell id="YBfaTymSBxBAk-N4L25q-1286" style="edgeStyle=orthogonalEdgeStyle;rounded=0;orthogonalLoop=1;jettySize=auto;html=1;entryX=1.068;entryY=0.646;entryDx=0;entryDy=0;entryPerimeter=0;strokeWidth=5;" edge="1" parent="YBfaTymSBxBAk-N4L25q-1205" source="YBfaTymSBxBAk-N4L25q-1248" target="YBfaTymSBxBAk-N4L25q-1215">
          <mxGeometry relative="1" as="geometry" />
        </mxCell>
        <mxCell id="YBfaTymSBxBAk-N4L25q-1287" style="edgeStyle=orthogonalEdgeStyle;rounded=0;orthogonalLoop=1;jettySize=auto;html=1;entryX=1;entryY=0.648;entryDx=0;entryDy=0;entryPerimeter=0;strokeWidth=5;" edge="1" parent="YBfaTymSBxBAk-N4L25q-1205" source="YBfaTymSBxBAk-N4L25q-1265" target="YBfaTymSBxBAk-N4L25q-1246">
          <mxGeometry relative="1" as="geometry" />
        </mxCell>
        <mxCell id="YBfaTymSBxBAk-N4L25q-1288" style="edgeStyle=orthogonalEdgeStyle;rounded=0;orthogonalLoop=1;jettySize=auto;html=1;strokeWidth=5;" edge="1" parent="YBfaTymSBxBAk-N4L25q-1205" source="YBfaTymSBxBAk-N4L25q-1209">
          <mxGeometry relative="1" as="geometry">
            <mxPoint x="2839.9999999999995" y="920" as="targetPoint" />
          </mxGeometry>
        </mxCell>
        <mxCell id="YBfaTymSBxBAk-N4L25q-1289" value="&lt;font style=&quot;font-size: 40px;&quot;&gt;3&lt;/font&gt;" style="text;html=1;align=center;verticalAlign=middle;resizable=0;points=[];autosize=1;strokeColor=none;fillColor=none;fontSize=40;" vertex="1" parent="YBfaTymSBxBAk-N4L25q-1205">
          <mxGeometry x="864.9999999999995" y="123" width="50" height="60" as="geometry" />
        </mxCell>
        <mxCell id="YBfaTymSBxBAk-N4L25q-1290" value="&lt;font style=&quot;font-size: 40px;&quot;&gt;1&lt;/font&gt;" style="text;html=1;align=center;verticalAlign=middle;resizable=0;points=[];autosize=1;strokeColor=none;fillColor=none;fontSize=40;" vertex="1" parent="YBfaTymSBxBAk-N4L25q-1205">
          <mxGeometry x="874.9999999999995" y="453" width="50" height="60" as="geometry" />
        </mxCell>
        <mxCell id="YBfaTymSBxBAk-N4L25q-1291" value="1" style="text;html=1;align=center;verticalAlign=middle;resizable=0;points=[];autosize=1;strokeColor=none;fillColor=none;fontSize=40;" vertex="1" parent="YBfaTymSBxBAk-N4L25q-1205">
          <mxGeometry x="1454.9999999999995" y="373" width="50" height="60" as="geometry" />
        </mxCell>
        <mxCell id="YBfaTymSBxBAk-N4L25q-1292" value="1" style="text;html=1;align=center;verticalAlign=middle;resizable=0;points=[];autosize=1;strokeColor=none;fillColor=none;fontSize=40;" vertex="1" parent="YBfaTymSBxBAk-N4L25q-1205">
          <mxGeometry x="1454.9999999999995" y="453" width="50" height="60" as="geometry" />
        </mxCell>
        <mxCell id="YBfaTymSBxBAk-N4L25q-1293" value="1" style="text;html=1;align=center;verticalAlign=middle;resizable=0;points=[];autosize=1;strokeColor=none;fillColor=none;fontSize=40;" vertex="1" parent="YBfaTymSBxBAk-N4L25q-1205">
          <mxGeometry x="1944.9999999999995" y="353" width="50" height="60" as="geometry" />
        </mxCell>
        <mxCell id="YBfaTymSBxBAk-N4L25q-1294" value="" style="group;fontSize=30;strokeWidth=5;" vertex="1" connectable="0" parent="YBfaTymSBxBAk-N4L25q-1205">
          <mxGeometry x="2677.9999999999995" width="410" height="910" as="geometry" />
        </mxCell>
        <mxCell id="YBfaTymSBxBAk-N4L25q-1295" value="" style="rounded=1;whiteSpace=wrap;html=1;fillColor=#dae8fc;strokeColor=#6c8ebf;fontSize=30;" vertex="1" parent="YBfaTymSBxBAk-N4L25q-1294">
          <mxGeometry width="290" height="910" as="geometry" />
        </mxCell>
        <mxCell id="YBfaTymSBxBAk-N4L25q-1296" value="o4" style="rounded=1;whiteSpace=wrap;html=1;fillColor=#f8cecc;strokeColor=#b85450;fontSize=30;" vertex="1" parent="YBfaTymSBxBAk-N4L25q-1294">
          <mxGeometry x="70" y="670" width="160" height="90" as="geometry" />
        </mxCell>
        <mxCell id="YBfaTymSBxBAk-N4L25q-1297" value="" style="rounded=0;whiteSpace=wrap;html=1;fillColor=#d5e8d4;strokeColor=#82b366;fontSize=30;" vertex="1" parent="YBfaTymSBxBAk-N4L25q-1294">
          <mxGeometry x="64.99999999999955" y="550" width="160" height="80" as="geometry" />
        </mxCell>
        <mxCell id="YBfaTymSBxBAk-N4L25q-1298" value="4" style="rounded=1;whiteSpace=wrap;html=1;fillColor=#fff2cc;strokeColor=#d6b656;fontSize=30;" vertex="1" parent="YBfaTymSBxBAk-N4L25q-1294">
          <mxGeometry x="70" y="800" width="160" height="90" as="geometry" />
        </mxCell>
        <mxCell id="YBfaTymSBxBAk-N4L25q-1299" value="" style="group;fontSize=30;" vertex="1" connectable="0" parent="YBfaTymSBxBAk-N4L25q-1294">
          <mxGeometry x="59.999999999999545" y="350" width="160" height="160" as="geometry" />
        </mxCell>
        <mxCell id="YBfaTymSBxBAk-N4L25q-1300" style="edgeStyle=orthogonalEdgeStyle;rounded=0;orthogonalLoop=1;jettySize=auto;html=1;exitX=0.5;exitY=1;exitDx=0;exitDy=0;" edge="1" parent="YBfaTymSBxBAk-N4L25q-1299" source="YBfaTymSBxBAk-N4L25q-1301" target="YBfaTymSBxBAk-N4L25q-1302">
          <mxGeometry relative="1" as="geometry" />
        </mxCell>
        <mxCell id="YBfaTymSBxBAk-N4L25q-1301" value="" style="rounded=0;whiteSpace=wrap;html=1;fontSize=30;" vertex="1" parent="YBfaTymSBxBAk-N4L25q-1299">
          <mxGeometry width="160" height="80" as="geometry" />
        </mxCell>
        <mxCell id="YBfaTymSBxBAk-N4L25q-1302" value="" style="rounded=0;whiteSpace=wrap;html=1;fontSize=30;" vertex="1" parent="YBfaTymSBxBAk-N4L25q-1299">
          <mxGeometry y="80" width="160" height="80" as="geometry" />
        </mxCell>
        <mxCell id="YBfaTymSBxBAk-N4L25q-1303" style="edgeStyle=orthogonalEdgeStyle;rounded=0;orthogonalLoop=1;jettySize=auto;html=1;strokeWidth=5;" edge="1" parent="YBfaTymSBxBAk-N4L25q-1205" source="YBfaTymSBxBAk-N4L25q-1302">
          <mxGeometry relative="1" as="geometry">
            <mxPoint x="3207.9999999999995" y="470" as="targetPoint" />
          </mxGeometry>
        </mxCell>
        <mxCell id="YBfaTymSBxBAk-N4L25q-1304" style="edgeStyle=orthogonalEdgeStyle;rounded=0;orthogonalLoop=1;jettySize=auto;html=1;strokeWidth=5;" edge="1" parent="YBfaTymSBxBAk-N4L25q-1205" source="YBfaTymSBxBAk-N4L25q-1301">
          <mxGeometry relative="1" as="geometry">
            <mxPoint x="3217.9999999999995" y="390" as="targetPoint" />
          </mxGeometry>
        </mxCell>
        <mxCell id="YBfaTymSBxBAk-N4L25q-1305" value="1" style="text;html=1;align=center;verticalAlign=middle;resizable=0;points=[];autosize=1;strokeColor=none;fillColor=none;fontSize=40;" vertex="1" parent="YBfaTymSBxBAk-N4L25q-1205">
          <mxGeometry x="2542.9999999999995" y="353" width="50" height="60" as="geometry" />
        </mxCell>
        <mxCell id="YBfaTymSBxBAk-N4L25q-1306" value="1" style="text;html=1;align=center;verticalAlign=middle;resizable=0;points=[];autosize=1;strokeColor=none;fillColor=none;fontSize=40;" vertex="1" parent="YBfaTymSBxBAk-N4L25q-1205">
          <mxGeometry x="2542.9999999999995" y="433" width="50" height="60" as="geometry" />
        </mxCell>
        <mxCell id="YBfaTymSBxBAk-N4L25q-1307" value="&lt;font style=&quot;font-size: 40px;&quot;&gt;null&lt;/font&gt;" style="text;html=1;align=center;verticalAlign=middle;resizable=0;points=[];autosize=1;strokeColor=none;fillColor=none;" vertex="1" parent="YBfaTymSBxBAk-N4L25q-1205">
          <mxGeometry x="3279.9999999999995" y="413" width="90" height="60" as="geometry" />
        </mxCell>
        <mxCell id="YBfaTymSBxBAk-N4L25q-1308" style="edgeStyle=orthogonalEdgeStyle;rounded=0;orthogonalLoop=1;jettySize=auto;html=1;strokeWidth=5;" edge="1" parent="YBfaTymSBxBAk-N4L25q-1205" source="YBfaTymSBxBAk-N4L25q-1270">
          <mxGeometry relative="1" as="geometry">
            <mxPoint x="2519.9999999999995" y="170" as="targetPoint" />
          </mxGeometry>
        </mxCell>
        <mxCell id="YBfaTymSBxBAk-N4L25q-1309" style="edgeStyle=orthogonalEdgeStyle;rounded=0;orthogonalLoop=1;jettySize=auto;html=1;strokeWidth=5;entryX=-0.011;entryY=0.452;entryDx=0;entryDy=0;entryPerimeter=0;" edge="1" parent="YBfaTymSBxBAk-N4L25q-1205" source="YBfaTymSBxBAk-N4L25q-1276" target="YBfaTymSBxBAk-N4L25q-1295">
          <mxGeometry relative="1" as="geometry">
            <mxPoint x="2519.9999999999995" y="410" as="targetPoint" />
          </mxGeometry>
        </mxCell>
        <mxCell id="YBfaTymSBxBAk-N4L25q-1310" style="edgeStyle=orthogonalEdgeStyle;rounded=0;orthogonalLoop=1;jettySize=auto;html=1;strokeWidth=5;entryX=-0.011;entryY=0.534;entryDx=0;entryDy=0;entryPerimeter=0;" edge="1" parent="YBfaTymSBxBAk-N4L25q-1205" source="YBfaTymSBxBAk-N4L25q-1277" target="YBfaTymSBxBAk-N4L25q-1295">
          <mxGeometry relative="1" as="geometry">
            <mxPoint x="2529.9999999999995" y="490" as="targetPoint" />
          </mxGeometry>
        </mxCell>
        <mxCell id="YBfaTymSBxBAk-N4L25q-1311" style="edgeStyle=orthogonalEdgeStyle;rounded=0;orthogonalLoop=1;jettySize=auto;html=1;strokeWidth=5;entryX=1.017;entryY=0.629;entryDx=0;entryDy=0;entryPerimeter=0;" edge="1" parent="YBfaTymSBxBAk-N4L25q-1205" source="YBfaTymSBxBAk-N4L25q-1297" target="YBfaTymSBxBAk-N4L25q-1263">
          <mxGeometry relative="1" as="geometry">
            <mxPoint x="2439.9999999999995" y="590" as="targetPoint" />
          </mxGeometry>
        </mxCell>
        <mxCell id="YBfaTymSBxBAk-N4L25q-1312" value="&lt;font style=&quot;font-size: 40px;&quot;&gt;null&lt;/font&gt;" style="text;html=1;align=center;verticalAlign=middle;resizable=0;points=[];autosize=1;strokeColor=none;fillColor=none;" vertex="1" parent="YBfaTymSBxBAk-N4L25q-1205">
          <mxGeometry x="2542.9999999999995" y="210" width="90" height="60" as="geometry" />
        </mxCell>
        <mxCell id="YBfaTymSBxBAk-N4L25q-1313" value="" style="group;strokeWidth=5;" vertex="1" connectable="0" parent="1">
          <mxGeometry x="130.00000000000045" y="4350" width="3369.9999999999995" height="1280" as="geometry" />
        </mxCell>
        <mxCell id="YBfaTymSBxBAk-N4L25q-1314" value="" style="group;fontSize=30;" vertex="1" connectable="0" parent="YBfaTymSBxBAk-N4L25q-1313">
          <mxGeometry y="960" width="160" height="320" as="geometry" />
        </mxCell>
        <mxCell id="YBfaTymSBxBAk-N4L25q-1315" value="" style="group;fontSize=30;" vertex="1" connectable="0" parent="YBfaTymSBxBAk-N4L25q-1314">
          <mxGeometry width="160" height="160" as="geometry" />
        </mxCell>
        <mxCell id="YBfaTymSBxBAk-N4L25q-1316" value="header" style="rounded=0;whiteSpace=wrap;html=1;fontSize=30;" vertex="1" parent="YBfaTymSBxBAk-N4L25q-1315">
          <mxGeometry width="160" height="80" as="geometry" />
        </mxCell>
        <mxCell id="YBfaTymSBxBAk-N4L25q-1317" value="tail" style="rounded=0;whiteSpace=wrap;html=1;fontSize=30;" vertex="1" parent="YBfaTymSBxBAk-N4L25q-1315">
          <mxGeometry y="80" width="160" height="80" as="geometry" />
        </mxCell>
        <mxCell id="YBfaTymSBxBAk-N4L25q-1318" value="" style="group;fontSize=30;" vertex="1" connectable="0" parent="YBfaTymSBxBAk-N4L25q-1314">
          <mxGeometry y="160" width="160" height="160" as="geometry" />
        </mxCell>
        <mxCell id="YBfaTymSBxBAk-N4L25q-1319" value="level&lt;br&gt;5" style="rounded=0;whiteSpace=wrap;html=1;fontSize=30;" vertex="1" parent="YBfaTymSBxBAk-N4L25q-1318">
          <mxGeometry width="160" height="80" as="geometry" />
        </mxCell>
        <mxCell id="YBfaTymSBxBAk-N4L25q-1320" value="length&lt;br&gt;3" style="rounded=0;whiteSpace=wrap;html=1;fontSize=30;" vertex="1" parent="YBfaTymSBxBAk-N4L25q-1318">
          <mxGeometry y="80" width="160" height="80" as="geometry" />
        </mxCell>
        <mxCell id="YBfaTymSBxBAk-N4L25q-1321" style="edgeStyle=orthogonalEdgeStyle;rounded=0;orthogonalLoop=1;jettySize=auto;html=1;entryX=0;entryY=0.5;entryDx=0;entryDy=0;strokeWidth=5;" edge="1" parent="YBfaTymSBxBAk-N4L25q-1313" source="YBfaTymSBxBAk-N4L25q-1316" target="YBfaTymSBxBAk-N4L25q-1338">
          <mxGeometry relative="1" as="geometry">
            <mxPoint x="369.99999999999955" y="460" as="targetPoint" />
          </mxGeometry>
        </mxCell>
        <mxCell id="YBfaTymSBxBAk-N4L25q-1322" value="" style="group;fontSize=30;" vertex="1" connectable="0" parent="YBfaTymSBxBAk-N4L25q-1313">
          <mxGeometry x="1049.9999999999995" y="20" width="290" height="910" as="geometry" />
        </mxCell>
        <mxCell id="YBfaTymSBxBAk-N4L25q-1323" value="" style="rounded=1;whiteSpace=wrap;html=1;fillColor=#dae8fc;strokeColor=#6c8ebf;fontSize=30;" vertex="1" parent="YBfaTymSBxBAk-N4L25q-1322">
          <mxGeometry width="290" height="910" as="geometry" />
        </mxCell>
        <mxCell id="YBfaTymSBxBAk-N4L25q-1324" value="o1" style="rounded=1;whiteSpace=wrap;html=1;fillColor=#f8cecc;strokeColor=#b85450;fontSize=30;" vertex="1" parent="YBfaTymSBxBAk-N4L25q-1322">
          <mxGeometry x="70" y="680" width="160" height="90" as="geometry" />
        </mxCell>
        <mxCell id="YBfaTymSBxBAk-N4L25q-1325" style="edgeStyle=orthogonalEdgeStyle;rounded=0;orthogonalLoop=1;jettySize=auto;html=1;strokeWidth=5;" edge="1" parent="YBfaTymSBxBAk-N4L25q-1322" source="YBfaTymSBxBAk-N4L25q-1327">
          <mxGeometry relative="1" as="geometry">
            <mxPoint x="-50" y="600" as="targetPoint" />
          </mxGeometry>
        </mxCell>
        <mxCell id="YBfaTymSBxBAk-N4L25q-1326" value="&lt;font style=&quot;font-size: 30px;&quot;&gt;null&lt;/font&gt;" style="edgeLabel;html=1;align=center;verticalAlign=middle;resizable=0;points=[];" vertex="1" connectable="0" parent="YBfaTymSBxBAk-N4L25q-1325">
          <mxGeometry x="0.7598" y="-3" relative="1" as="geometry">
            <mxPoint x="-54" y="3" as="offset" />
          </mxGeometry>
        </mxCell>
        <mxCell id="YBfaTymSBxBAk-N4L25q-1327" value="" style="rounded=0;whiteSpace=wrap;html=1;fillColor=#d5e8d4;strokeColor=#82b366;fontSize=30;" vertex="1" parent="YBfaTymSBxBAk-N4L25q-1322">
          <mxGeometry x="69.99999999999955" y="560" width="160" height="80" as="geometry" />
        </mxCell>
        <mxCell id="YBfaTymSBxBAk-N4L25q-1328" value="1.0" style="rounded=1;whiteSpace=wrap;html=1;fillColor=#fff2cc;strokeColor=#d6b656;fontSize=30;" vertex="1" parent="YBfaTymSBxBAk-N4L25q-1322">
          <mxGeometry x="70" y="800" width="160" height="90" as="geometry" />
        </mxCell>
        <mxCell id="YBfaTymSBxBAk-N4L25q-1329" value="" style="group;fontSize=30;" vertex="1" connectable="0" parent="YBfaTymSBxBAk-N4L25q-1322">
          <mxGeometry x="70" y="120" width="160.00000000000045" height="400" as="geometry" />
        </mxCell>
        <mxCell id="YBfaTymSBxBAk-N4L25q-1330" value="" style="group;fontSize=30;" vertex="1" connectable="0" parent="YBfaTymSBxBAk-N4L25q-1329">
          <mxGeometry width="160.00000000000045" height="240" as="geometry" />
        </mxCell>
        <mxCell id="YBfaTymSBxBAk-N4L25q-1331" value="" style="group;fontSize=30;" vertex="1" connectable="0" parent="YBfaTymSBxBAk-N4L25q-1330">
          <mxGeometry x="4.547473508864641e-13" width="160" height="160" as="geometry" />
        </mxCell>
        <mxCell id="YBfaTymSBxBAk-N4L25q-1332" value="" style="rounded=0;whiteSpace=wrap;html=1;fontSize=30;" vertex="1" parent="YBfaTymSBxBAk-N4L25q-1331">
          <mxGeometry y="80" width="160" height="80" as="geometry" />
        </mxCell>
        <mxCell id="YBfaTymSBxBAk-N4L25q-1333" value="" style="rounded=0;whiteSpace=wrap;html=1;fontSize=30;" vertex="1" parent="YBfaTymSBxBAk-N4L25q-1330">
          <mxGeometry y="160" width="160" height="80" as="geometry" />
        </mxCell>
        <mxCell id="YBfaTymSBxBAk-N4L25q-1334" value="" style="group;fontSize=30;" vertex="1" connectable="0" parent="YBfaTymSBxBAk-N4L25q-1329">
          <mxGeometry y="240" width="160" height="160" as="geometry" />
        </mxCell>
        <mxCell id="YBfaTymSBxBAk-N4L25q-1335" value="" style="rounded=0;whiteSpace=wrap;html=1;fontSize=30;" vertex="1" parent="YBfaTymSBxBAk-N4L25q-1334">
          <mxGeometry width="160" height="80" as="geometry" />
        </mxCell>
        <mxCell id="YBfaTymSBxBAk-N4L25q-1336" value="" style="rounded=0;whiteSpace=wrap;html=1;fontSize=30;" vertex="1" parent="YBfaTymSBxBAk-N4L25q-1334">
          <mxGeometry y="80" width="160" height="80" as="geometry" />
        </mxCell>
        <mxCell id="YBfaTymSBxBAk-N4L25q-1337" value="" style="group;fontSize=30;" vertex="1" connectable="0" parent="YBfaTymSBxBAk-N4L25q-1313">
          <mxGeometry x="469.99999999999955" y="20" width="290" height="910" as="geometry" />
        </mxCell>
        <mxCell id="YBfaTymSBxBAk-N4L25q-1338" value="" style="rounded=1;whiteSpace=wrap;html=1;fillColor=#dae8fc;strokeColor=#6c8ebf;fontSize=30;" vertex="1" parent="YBfaTymSBxBAk-N4L25q-1337">
          <mxGeometry width="290" height="910" as="geometry" />
        </mxCell>
        <mxCell id="YBfaTymSBxBAk-N4L25q-1339" value="null" style="rounded=1;whiteSpace=wrap;html=1;fillColor=#f8cecc;strokeColor=#b85450;fontSize=30;" vertex="1" parent="YBfaTymSBxBAk-N4L25q-1337">
          <mxGeometry x="70" y="670" width="160" height="90" as="geometry" />
        </mxCell>
        <mxCell id="YBfaTymSBxBAk-N4L25q-1340" value="null" style="rounded=0;whiteSpace=wrap;html=1;fillColor=#d5e8d4;strokeColor=#82b366;fontSize=30;" vertex="1" parent="YBfaTymSBxBAk-N4L25q-1337">
          <mxGeometry x="64.99999999999955" y="550" width="160" height="80" as="geometry" />
        </mxCell>
        <mxCell id="YBfaTymSBxBAk-N4L25q-1341" value="null" style="rounded=1;whiteSpace=wrap;html=1;fillColor=#fff2cc;strokeColor=#d6b656;fontSize=30;" vertex="1" parent="YBfaTymSBxBAk-N4L25q-1337">
          <mxGeometry x="70" y="800" width="160" height="90" as="geometry" />
        </mxCell>
        <mxCell id="YBfaTymSBxBAk-N4L25q-1342" value="" style="group;fontSize=30;" vertex="1" connectable="0" parent="YBfaTymSBxBAk-N4L25q-1337">
          <mxGeometry x="65" y="40" width="160.00000000000045" height="480" as="geometry" />
        </mxCell>
        <mxCell id="YBfaTymSBxBAk-N4L25q-1343" value="" style="group;fontSize=30;" vertex="1" connectable="0" parent="YBfaTymSBxBAk-N4L25q-1342">
          <mxGeometry width="160.00000000000045" height="240" as="geometry" />
        </mxCell>
        <mxCell id="YBfaTymSBxBAk-N4L25q-1344" value="" style="group;fontSize=30;" vertex="1" connectable="0" parent="YBfaTymSBxBAk-N4L25q-1343">
          <mxGeometry x="4.547473508864641e-13" width="160" height="160" as="geometry" />
        </mxCell>
        <mxCell id="YBfaTymSBxBAk-N4L25q-1345" value="...L32" style="rounded=0;whiteSpace=wrap;html=1;fontSize=30;" vertex="1" parent="YBfaTymSBxBAk-N4L25q-1344">
          <mxGeometry width="160" height="80" as="geometry" />
        </mxCell>
        <mxCell id="YBfaTymSBxBAk-N4L25q-1346" value="L5" style="rounded=0;whiteSpace=wrap;html=1;fontSize=30;" vertex="1" parent="YBfaTymSBxBAk-N4L25q-1344">
          <mxGeometry y="80" width="160" height="80" as="geometry" />
        </mxCell>
        <mxCell id="YBfaTymSBxBAk-N4L25q-1347" value="L4" style="rounded=0;whiteSpace=wrap;html=1;fontSize=30;" vertex="1" parent="YBfaTymSBxBAk-N4L25q-1343">
          <mxGeometry y="160" width="160" height="80" as="geometry" />
        </mxCell>
        <mxCell id="YBfaTymSBxBAk-N4L25q-1348" value="" style="group;fontSize=30;" vertex="1" connectable="0" parent="YBfaTymSBxBAk-N4L25q-1342">
          <mxGeometry y="240" width="160.00000000000045" height="240" as="geometry" />
        </mxCell>
        <mxCell id="YBfaTymSBxBAk-N4L25q-1349" value="" style="group;fontSize=30;" vertex="1" connectable="0" parent="YBfaTymSBxBAk-N4L25q-1348">
          <mxGeometry x="4.547473508864641e-13" width="160" height="160" as="geometry" />
        </mxCell>
        <mxCell id="YBfaTymSBxBAk-N4L25q-1350" value="L3" style="rounded=0;whiteSpace=wrap;html=1;fontSize=30;" vertex="1" parent="YBfaTymSBxBAk-N4L25q-1349">
          <mxGeometry width="160" height="80" as="geometry" />
        </mxCell>
        <mxCell id="YBfaTymSBxBAk-N4L25q-1351" value="L2" style="rounded=0;whiteSpace=wrap;html=1;fontSize=30;" vertex="1" parent="YBfaTymSBxBAk-N4L25q-1349">
          <mxGeometry y="80" width="160" height="80" as="geometry" />
        </mxCell>
        <mxCell id="YBfaTymSBxBAk-N4L25q-1352" value="L1" style="rounded=0;whiteSpace=wrap;html=1;fontSize=30;" vertex="1" parent="YBfaTymSBxBAk-N4L25q-1348">
          <mxGeometry y="160" width="160" height="80" as="geometry" />
        </mxCell>
        <mxCell id="YBfaTymSBxBAk-N4L25q-1353" value="" style="group;fontSize=30;" vertex="1" connectable="0" parent="YBfaTymSBxBAk-N4L25q-1313">
          <mxGeometry x="1589.9999999999995" y="20" width="410" height="910" as="geometry" />
        </mxCell>
        <mxCell id="YBfaTymSBxBAk-N4L25q-1354" value="" style="rounded=1;whiteSpace=wrap;html=1;fillColor=#dae8fc;strokeColor=#6c8ebf;fontSize=30;" vertex="1" parent="YBfaTymSBxBAk-N4L25q-1353">
          <mxGeometry width="290" height="910" as="geometry" />
        </mxCell>
        <mxCell id="YBfaTymSBxBAk-N4L25q-1355" value="o2" style="rounded=1;whiteSpace=wrap;html=1;fillColor=#f8cecc;strokeColor=#b85450;fontSize=30;" vertex="1" parent="YBfaTymSBxBAk-N4L25q-1353">
          <mxGeometry x="70" y="670" width="160" height="90" as="geometry" />
        </mxCell>
        <mxCell id="YBfaTymSBxBAk-N4L25q-1356" value="" style="rounded=0;whiteSpace=wrap;html=1;fillColor=#d5e8d4;strokeColor=#82b366;fontSize=30;" vertex="1" parent="YBfaTymSBxBAk-N4L25q-1353">
          <mxGeometry x="64.99999999999955" y="550" width="160" height="80" as="geometry" />
        </mxCell>
        <mxCell id="YBfaTymSBxBAk-N4L25q-1357" value="2.0" style="rounded=1;whiteSpace=wrap;html=1;fillColor=#fff2cc;strokeColor=#d6b656;fontSize=30;" vertex="1" parent="YBfaTymSBxBAk-N4L25q-1353">
          <mxGeometry x="70" y="800" width="160" height="90" as="geometry" />
        </mxCell>
        <mxCell id="YBfaTymSBxBAk-N4L25q-1358" value="" style="group;fontSize=30;" vertex="1" connectable="0" parent="YBfaTymSBxBAk-N4L25q-1353">
          <mxGeometry x="59.999999999999545" y="350" width="160" height="160" as="geometry" />
        </mxCell>
        <mxCell id="YBfaTymSBxBAk-N4L25q-1359" style="edgeStyle=orthogonalEdgeStyle;rounded=0;orthogonalLoop=1;jettySize=auto;html=1;exitX=0.5;exitY=1;exitDx=0;exitDy=0;" edge="1" parent="YBfaTymSBxBAk-N4L25q-1358" source="YBfaTymSBxBAk-N4L25q-1360" target="YBfaTymSBxBAk-N4L25q-1361">
          <mxGeometry relative="1" as="geometry" />
        </mxCell>
        <mxCell id="YBfaTymSBxBAk-N4L25q-1360" value="" style="rounded=0;whiteSpace=wrap;html=1;fontSize=30;" vertex="1" parent="YBfaTymSBxBAk-N4L25q-1358">
          <mxGeometry width="160" height="80" as="geometry" />
        </mxCell>
        <mxCell id="YBfaTymSBxBAk-N4L25q-1361" value="" style="rounded=0;whiteSpace=wrap;html=1;fontSize=30;" vertex="1" parent="YBfaTymSBxBAk-N4L25q-1358">
          <mxGeometry y="80" width="160" height="80" as="geometry" />
        </mxCell>
        <mxCell id="YBfaTymSBxBAk-N4L25q-1362" style="edgeStyle=orthogonalEdgeStyle;rounded=0;orthogonalLoop=1;jettySize=auto;html=1;entryX=-0.007;entryY=0.27;entryDx=0;entryDy=0;entryPerimeter=0;strokeWidth=5;" edge="1" parent="YBfaTymSBxBAk-N4L25q-1313" source="YBfaTymSBxBAk-N4L25q-1347" target="YBfaTymSBxBAk-N4L25q-1323">
          <mxGeometry relative="1" as="geometry">
            <mxPoint x="1049.9999999999995" y="270" as="targetPoint" />
          </mxGeometry>
        </mxCell>
        <mxCell id="YBfaTymSBxBAk-N4L25q-1363" value="&lt;font style=&quot;font-size: 40px;&quot;&gt;1&lt;/font&gt;" style="edgeLabel;html=1;align=center;verticalAlign=middle;resizable=0;points=[];fontSize=40;" vertex="1" connectable="0" parent="YBfaTymSBxBAk-N4L25q-1362">
          <mxGeometry x="-0.0099" y="5" relative="1" as="geometry">
            <mxPoint x="12" y="-10" as="offset" />
          </mxGeometry>
        </mxCell>
        <mxCell id="YBfaTymSBxBAk-N4L25q-1364" style="edgeStyle=orthogonalEdgeStyle;rounded=0;orthogonalLoop=1;jettySize=auto;html=1;entryX=0;entryY=0.353;entryDx=0;entryDy=0;entryPerimeter=0;strokeWidth=5;" edge="1" parent="YBfaTymSBxBAk-N4L25q-1313" source="YBfaTymSBxBAk-N4L25q-1350" target="YBfaTymSBxBAk-N4L25q-1323">
          <mxGeometry relative="1" as="geometry" />
        </mxCell>
        <mxCell id="YBfaTymSBxBAk-N4L25q-1365" value="&lt;font style=&quot;font-size: 40px;&quot;&gt;1&lt;/font&gt;" style="edgeLabel;html=1;align=center;verticalAlign=middle;resizable=0;points=[];fontSize=40;" vertex="1" connectable="0" parent="YBfaTymSBxBAk-N4L25q-1364">
          <mxGeometry x="0.2559" y="3" relative="1" as="geometry">
            <mxPoint x="1" as="offset" />
          </mxGeometry>
        </mxCell>
        <mxCell id="YBfaTymSBxBAk-N4L25q-1366" style="edgeStyle=orthogonalEdgeStyle;rounded=0;orthogonalLoop=1;jettySize=auto;html=1;entryX=0;entryY=0.44;entryDx=0;entryDy=0;entryPerimeter=0;strokeWidth=5;" edge="1" parent="YBfaTymSBxBAk-N4L25q-1313" source="YBfaTymSBxBAk-N4L25q-1351" target="YBfaTymSBxBAk-N4L25q-1323">
          <mxGeometry relative="1" as="geometry" />
        </mxCell>
        <mxCell id="YBfaTymSBxBAk-N4L25q-1367" style="edgeStyle=orthogonalEdgeStyle;rounded=0;orthogonalLoop=1;jettySize=auto;html=1;entryX=-0.021;entryY=0.525;entryDx=0;entryDy=0;entryPerimeter=0;strokeWidth=5;" edge="1" parent="YBfaTymSBxBAk-N4L25q-1313" source="YBfaTymSBxBAk-N4L25q-1352" target="YBfaTymSBxBAk-N4L25q-1323">
          <mxGeometry relative="1" as="geometry" />
        </mxCell>
        <mxCell id="YBfaTymSBxBAk-N4L25q-1368" style="edgeStyle=orthogonalEdgeStyle;rounded=0;orthogonalLoop=1;jettySize=auto;html=1;entryX=0.001;entryY=0.529;entryDx=0;entryDy=0;entryPerimeter=0;strokeWidth=5;" edge="1" parent="YBfaTymSBxBAk-N4L25q-1313" source="YBfaTymSBxBAk-N4L25q-1336" target="YBfaTymSBxBAk-N4L25q-1354">
          <mxGeometry relative="1" as="geometry" />
        </mxCell>
        <mxCell id="YBfaTymSBxBAk-N4L25q-1369" style="edgeStyle=orthogonalEdgeStyle;rounded=0;orthogonalLoop=1;jettySize=auto;html=1;entryX=-0.008;entryY=0.436;entryDx=0;entryDy=0;entryPerimeter=0;strokeWidth=5;" edge="1" parent="YBfaTymSBxBAk-N4L25q-1313" source="YBfaTymSBxBAk-N4L25q-1335" target="YBfaTymSBxBAk-N4L25q-1354">
          <mxGeometry relative="1" as="geometry" />
        </mxCell>
        <mxCell id="YBfaTymSBxBAk-N4L25q-1370" value="" style="group;fontSize=30;" vertex="1" connectable="0" parent="YBfaTymSBxBAk-N4L25q-1313">
          <mxGeometry x="2919.9999999999995" y="10" width="290" height="910" as="geometry" />
        </mxCell>
        <mxCell id="YBfaTymSBxBAk-N4L25q-1371" value="" style="rounded=1;whiteSpace=wrap;html=1;fillColor=#dae8fc;strokeColor=#6c8ebf;fontSize=30;" vertex="1" parent="YBfaTymSBxBAk-N4L25q-1370">
          <mxGeometry width="290" height="910" as="geometry" />
        </mxCell>
        <mxCell id="YBfaTymSBxBAk-N4L25q-1372" value="o3" style="rounded=1;whiteSpace=wrap;html=1;fillColor=#f8cecc;strokeColor=#b85450;fontSize=30;" vertex="1" parent="YBfaTymSBxBAk-N4L25q-1370">
          <mxGeometry x="70" y="670" width="160" height="90" as="geometry" />
        </mxCell>
        <mxCell id="YBfaTymSBxBAk-N4L25q-1373" value="" style="rounded=0;whiteSpace=wrap;html=1;fillColor=#d5e8d4;strokeColor=#82b366;fontSize=30;" vertex="1" parent="YBfaTymSBxBAk-N4L25q-1370">
          <mxGeometry x="64.99999999999955" y="550" width="160" height="80" as="geometry" />
        </mxCell>
        <mxCell id="YBfaTymSBxBAk-N4L25q-1374" value="3.0" style="rounded=1;whiteSpace=wrap;html=1;fillColor=#fff2cc;strokeColor=#d6b656;fontSize=30;" vertex="1" parent="YBfaTymSBxBAk-N4L25q-1370">
          <mxGeometry x="70" y="800" width="160" height="90" as="geometry" />
        </mxCell>
        <mxCell id="YBfaTymSBxBAk-N4L25q-1375" value="" style="group;fontSize=30;" vertex="1" connectable="0" parent="YBfaTymSBxBAk-N4L25q-1370">
          <mxGeometry x="60" y="110" width="160.00000000000045" height="400" as="geometry" />
        </mxCell>
        <mxCell id="YBfaTymSBxBAk-N4L25q-1376" value="" style="group;fontSize=30;" vertex="1" connectable="0" parent="YBfaTymSBxBAk-N4L25q-1375">
          <mxGeometry width="160.00000000000045" height="240" as="geometry" />
        </mxCell>
        <mxCell id="YBfaTymSBxBAk-N4L25q-1377" value="" style="group;fontSize=30;" vertex="1" connectable="0" parent="YBfaTymSBxBAk-N4L25q-1376">
          <mxGeometry x="4.547473508864641e-13" width="160" height="160" as="geometry" />
        </mxCell>
        <mxCell id="YBfaTymSBxBAk-N4L25q-1378" value="" style="rounded=0;whiteSpace=wrap;html=1;fontSize=30;" vertex="1" parent="YBfaTymSBxBAk-N4L25q-1377">
          <mxGeometry width="160" height="80" as="geometry" />
        </mxCell>
        <mxCell id="YBfaTymSBxBAk-N4L25q-1379" style="edgeStyle=orthogonalEdgeStyle;rounded=0;orthogonalLoop=1;jettySize=auto;html=1;strokeWidth=5;" edge="1" parent="YBfaTymSBxBAk-N4L25q-1377" source="YBfaTymSBxBAk-N4L25q-1380">
          <mxGeometry relative="1" as="geometry">
            <mxPoint x="349.99999999999955" y="120" as="targetPoint" />
          </mxGeometry>
        </mxCell>
        <mxCell id="YBfaTymSBxBAk-N4L25q-1380" value="" style="rounded=0;whiteSpace=wrap;html=1;fontSize=30;" vertex="1" parent="YBfaTymSBxBAk-N4L25q-1377">
          <mxGeometry y="80" width="160" height="80" as="geometry" />
        </mxCell>
        <mxCell id="YBfaTymSBxBAk-N4L25q-1381" style="edgeStyle=orthogonalEdgeStyle;rounded=0;orthogonalLoop=1;jettySize=auto;html=1;strokeWidth=5;" edge="1" parent="YBfaTymSBxBAk-N4L25q-1376" source="YBfaTymSBxBAk-N4L25q-1382">
          <mxGeometry relative="1" as="geometry">
            <mxPoint x="340" y="200" as="targetPoint" />
          </mxGeometry>
        </mxCell>
        <mxCell id="YBfaTymSBxBAk-N4L25q-1382" value="" style="rounded=0;whiteSpace=wrap;html=1;fontSize=30;" vertex="1" parent="YBfaTymSBxBAk-N4L25q-1376">
          <mxGeometry y="160" width="160" height="80" as="geometry" />
        </mxCell>
        <mxCell id="YBfaTymSBxBAk-N4L25q-1383" value="" style="group;fontSize=30;" vertex="1" connectable="0" parent="YBfaTymSBxBAk-N4L25q-1375">
          <mxGeometry y="240" width="160" height="160" as="geometry" />
        </mxCell>
        <mxCell id="YBfaTymSBxBAk-N4L25q-1384" value="" style="rounded=0;whiteSpace=wrap;html=1;fontSize=30;" vertex="1" parent="YBfaTymSBxBAk-N4L25q-1383">
          <mxGeometry width="160" height="80" as="geometry" />
        </mxCell>
        <mxCell id="YBfaTymSBxBAk-N4L25q-1385" value="" style="rounded=0;whiteSpace=wrap;html=1;fontSize=30;" vertex="1" parent="YBfaTymSBxBAk-N4L25q-1383">
          <mxGeometry y="80" width="160" height="80" as="geometry" />
        </mxCell>
        <mxCell id="YBfaTymSBxBAk-N4L25q-1386" style="edgeStyle=orthogonalEdgeStyle;rounded=0;orthogonalLoop=1;jettySize=auto;html=1;strokeWidth=5;entryX=0;entryY=0.5;entryDx=0;entryDy=0;" edge="1" parent="YBfaTymSBxBAk-N4L25q-1313" source="YBfaTymSBxBAk-N4L25q-1361" target="YBfaTymSBxBAk-N4L25q-1424">
          <mxGeometry relative="1" as="geometry">
            <mxPoint x="2079.9999999999995" y="490" as="targetPoint" />
          </mxGeometry>
        </mxCell>
        <mxCell id="YBfaTymSBxBAk-N4L25q-1387" value="1" style="edgeLabel;html=1;align=center;verticalAlign=middle;resizable=0;points=[];fontSize=40;" vertex="1" connectable="0" parent="YBfaTymSBxBAk-N4L25q-1386">
          <mxGeometry x="0.294" y="7" relative="1" as="geometry">
            <mxPoint as="offset" />
          </mxGeometry>
        </mxCell>
        <mxCell id="YBfaTymSBxBAk-N4L25q-1388" style="edgeStyle=orthogonalEdgeStyle;rounded=0;orthogonalLoop=1;jettySize=auto;html=1;strokeWidth=5;entryX=-0.012;entryY=0.424;entryDx=0;entryDy=0;entryPerimeter=0;" edge="1" parent="YBfaTymSBxBAk-N4L25q-1313" source="YBfaTymSBxBAk-N4L25q-1360" target="YBfaTymSBxBAk-N4L25q-1424">
          <mxGeometry relative="1" as="geometry">
            <mxPoint x="2079.9999999999995" y="410" as="targetPoint" />
          </mxGeometry>
        </mxCell>
        <mxCell id="YBfaTymSBxBAk-N4L25q-1389" style="edgeStyle=orthogonalEdgeStyle;rounded=0;orthogonalLoop=1;jettySize=auto;html=1;entryX=-0.043;entryY=0.343;entryDx=0;entryDy=0;entryPerimeter=0;strokeWidth=5;" edge="1" parent="YBfaTymSBxBAk-N4L25q-1313" source="YBfaTymSBxBAk-N4L25q-1333" target="YBfaTymSBxBAk-N4L25q-1424">
          <mxGeometry relative="1" as="geometry" />
        </mxCell>
        <mxCell id="YBfaTymSBxBAk-N4L25q-1390" value="2" style="edgeLabel;html=1;align=center;verticalAlign=middle;resizable=0;points=[];fontSize=40;" vertex="1" connectable="0" parent="YBfaTymSBxBAk-N4L25q-1389">
          <mxGeometry x="-0.6353" y="1" relative="1" as="geometry">
            <mxPoint x="2" as="offset" />
          </mxGeometry>
        </mxCell>
        <mxCell id="YBfaTymSBxBAk-N4L25q-1394" style="edgeStyle=orthogonalEdgeStyle;rounded=0;orthogonalLoop=1;jettySize=auto;html=1;entryX=1.068;entryY=0.646;entryDx=0;entryDy=0;entryPerimeter=0;strokeWidth=5;" edge="1" parent="YBfaTymSBxBAk-N4L25q-1313" source="YBfaTymSBxBAk-N4L25q-1356" target="YBfaTymSBxBAk-N4L25q-1323">
          <mxGeometry relative="1" as="geometry" />
        </mxCell>
        <mxCell id="YBfaTymSBxBAk-N4L25q-1395" style="edgeStyle=orthogonalEdgeStyle;rounded=0;orthogonalLoop=1;jettySize=auto;html=1;entryX=1.069;entryY=0.633;entryDx=0;entryDy=0;entryPerimeter=0;strokeWidth=5;" edge="1" parent="YBfaTymSBxBAk-N4L25q-1313" source="YBfaTymSBxBAk-N4L25q-1373" target="YBfaTymSBxBAk-N4L25q-1424">
          <mxGeometry relative="1" as="geometry" />
        </mxCell>
        <mxCell id="YBfaTymSBxBAk-N4L25q-1396" style="edgeStyle=orthogonalEdgeStyle;rounded=0;orthogonalLoop=1;jettySize=auto;html=1;entryX=0.5;entryY=1;entryDx=0;entryDy=0;strokeWidth=5;" edge="1" parent="YBfaTymSBxBAk-N4L25q-1313" source="YBfaTymSBxBAk-N4L25q-1317" target="YBfaTymSBxBAk-N4L25q-1371">
          <mxGeometry relative="1" as="geometry" />
        </mxCell>
        <mxCell id="YBfaTymSBxBAk-N4L25q-1397" value="&lt;font style=&quot;font-size: 40px;&quot;&gt;4&lt;br&gt;&lt;/font&gt;" style="text;html=1;align=center;verticalAlign=middle;resizable=0;points=[];autosize=1;strokeColor=none;fillColor=none;fontSize=40;" vertex="1" parent="YBfaTymSBxBAk-N4L25q-1313">
          <mxGeometry x="864.9999999999995" y="123" width="50" height="60" as="geometry" />
        </mxCell>
        <mxCell id="YBfaTymSBxBAk-N4L25q-1398" value="&lt;font style=&quot;font-size: 40px;&quot;&gt;1&lt;/font&gt;" style="text;html=1;align=center;verticalAlign=middle;resizable=0;points=[];autosize=1;strokeColor=none;fillColor=none;fontSize=40;" vertex="1" parent="YBfaTymSBxBAk-N4L25q-1313">
          <mxGeometry x="874.9999999999995" y="453" width="50" height="60" as="geometry" />
        </mxCell>
        <mxCell id="YBfaTymSBxBAk-N4L25q-1399" value="1" style="text;html=1;align=center;verticalAlign=middle;resizable=0;points=[];autosize=1;strokeColor=none;fillColor=none;fontSize=40;" vertex="1" parent="YBfaTymSBxBAk-N4L25q-1313">
          <mxGeometry x="1454.9999999999995" y="373" width="50" height="60" as="geometry" />
        </mxCell>
        <mxCell id="YBfaTymSBxBAk-N4L25q-1400" value="1" style="text;html=1;align=center;verticalAlign=middle;resizable=0;points=[];autosize=1;strokeColor=none;fillColor=none;fontSize=40;" vertex="1" parent="YBfaTymSBxBAk-N4L25q-1313">
          <mxGeometry x="1454.9999999999995" y="453" width="50" height="60" as="geometry" />
        </mxCell>
        <mxCell id="YBfaTymSBxBAk-N4L25q-1401" value="1" style="text;html=1;align=center;verticalAlign=middle;resizable=0;points=[];autosize=1;strokeColor=none;fillColor=none;fontSize=40;" vertex="1" parent="YBfaTymSBxBAk-N4L25q-1313">
          <mxGeometry x="1944.9999999999995" y="353" width="50" height="60" as="geometry" />
        </mxCell>
        <mxCell id="YBfaTymSBxBAk-N4L25q-1402" value="" style="group;fontSize=30;strokeWidth=5;" vertex="1" connectable="0" parent="YBfaTymSBxBAk-N4L25q-1313">
          <mxGeometry x="3477.9999999999995" y="-10" width="410" height="910" as="geometry" />
        </mxCell>
        <mxCell id="YBfaTymSBxBAk-N4L25q-1403" value="" style="rounded=1;whiteSpace=wrap;html=1;fillColor=#dae8fc;strokeColor=#6c8ebf;fontSize=30;" vertex="1" parent="YBfaTymSBxBAk-N4L25q-1402">
          <mxGeometry width="290" height="910" as="geometry" />
        </mxCell>
        <mxCell id="YBfaTymSBxBAk-N4L25q-1404" value="o4" style="rounded=1;whiteSpace=wrap;html=1;fillColor=#f8cecc;strokeColor=#b85450;fontSize=30;" vertex="1" parent="YBfaTymSBxBAk-N4L25q-1402">
          <mxGeometry x="70" y="670" width="160" height="90" as="geometry" />
        </mxCell>
        <mxCell id="YBfaTymSBxBAk-N4L25q-1405" value="" style="rounded=0;whiteSpace=wrap;html=1;fillColor=#d5e8d4;strokeColor=#82b366;fontSize=30;" vertex="1" parent="YBfaTymSBxBAk-N4L25q-1402">
          <mxGeometry x="64.99999999999955" y="550" width="160" height="80" as="geometry" />
        </mxCell>
        <mxCell id="YBfaTymSBxBAk-N4L25q-1406" value="4" style="rounded=1;whiteSpace=wrap;html=1;fillColor=#fff2cc;strokeColor=#d6b656;fontSize=30;" vertex="1" parent="YBfaTymSBxBAk-N4L25q-1402">
          <mxGeometry x="70" y="800" width="160" height="90" as="geometry" />
        </mxCell>
        <mxCell id="YBfaTymSBxBAk-N4L25q-1407" value="" style="group;fontSize=30;" vertex="1" connectable="0" parent="YBfaTymSBxBAk-N4L25q-1402">
          <mxGeometry x="59.999999999999545" y="350" width="160" height="160" as="geometry" />
        </mxCell>
        <mxCell id="YBfaTymSBxBAk-N4L25q-1408" style="edgeStyle=orthogonalEdgeStyle;rounded=0;orthogonalLoop=1;jettySize=auto;html=1;exitX=0.5;exitY=1;exitDx=0;exitDy=0;" edge="1" parent="YBfaTymSBxBAk-N4L25q-1407" source="YBfaTymSBxBAk-N4L25q-1409" target="YBfaTymSBxBAk-N4L25q-1410">
          <mxGeometry relative="1" as="geometry" />
        </mxCell>
        <mxCell id="YBfaTymSBxBAk-N4L25q-1409" value="" style="rounded=0;whiteSpace=wrap;html=1;fontSize=30;" vertex="1" parent="YBfaTymSBxBAk-N4L25q-1407">
          <mxGeometry width="160" height="80" as="geometry" />
        </mxCell>
        <mxCell id="YBfaTymSBxBAk-N4L25q-1410" value="" style="rounded=0;whiteSpace=wrap;html=1;fontSize=30;" vertex="1" parent="YBfaTymSBxBAk-N4L25q-1407">
          <mxGeometry y="80" width="160" height="80" as="geometry" />
        </mxCell>
        <mxCell id="YBfaTymSBxBAk-N4L25q-1411" style="edgeStyle=orthogonalEdgeStyle;rounded=0;orthogonalLoop=1;jettySize=auto;html=1;strokeWidth=5;" edge="1" parent="YBfaTymSBxBAk-N4L25q-1313" source="YBfaTymSBxBAk-N4L25q-1410">
          <mxGeometry relative="1" as="geometry">
            <mxPoint x="4007.9999999999995" y="460" as="targetPoint" />
          </mxGeometry>
        </mxCell>
        <mxCell id="YBfaTymSBxBAk-N4L25q-1412" style="edgeStyle=orthogonalEdgeStyle;rounded=0;orthogonalLoop=1;jettySize=auto;html=1;strokeWidth=5;" edge="1" parent="YBfaTymSBxBAk-N4L25q-1313" source="YBfaTymSBxBAk-N4L25q-1409">
          <mxGeometry relative="1" as="geometry">
            <mxPoint x="4017.9999999999995" y="380" as="targetPoint" />
          </mxGeometry>
        </mxCell>
        <mxCell id="YBfaTymSBxBAk-N4L25q-1413" value="1" style="text;html=1;align=center;verticalAlign=middle;resizable=0;points=[];autosize=1;strokeColor=none;fillColor=none;fontSize=40;" vertex="1" parent="YBfaTymSBxBAk-N4L25q-1313">
          <mxGeometry x="3342.9999999999995" y="343" width="50" height="60" as="geometry" />
        </mxCell>
        <mxCell id="YBfaTymSBxBAk-N4L25q-1414" value="1" style="text;html=1;align=center;verticalAlign=middle;resizable=0;points=[];autosize=1;strokeColor=none;fillColor=none;fontSize=40;" vertex="1" parent="YBfaTymSBxBAk-N4L25q-1313">
          <mxGeometry x="3342.9999999999995" y="423" width="50" height="60" as="geometry" />
        </mxCell>
        <mxCell id="YBfaTymSBxBAk-N4L25q-1415" value="&lt;font style=&quot;font-size: 40px;&quot;&gt;null&lt;/font&gt;" style="text;html=1;align=center;verticalAlign=middle;resizable=0;points=[];autosize=1;strokeColor=none;fillColor=none;" vertex="1" parent="YBfaTymSBxBAk-N4L25q-1313">
          <mxGeometry x="4079.9999999999995" y="403" width="90" height="60" as="geometry" />
        </mxCell>
        <mxCell id="YBfaTymSBxBAk-N4L25q-1416" style="edgeStyle=orthogonalEdgeStyle;rounded=0;orthogonalLoop=1;jettySize=auto;html=1;strokeWidth=5;" edge="1" parent="YBfaTymSBxBAk-N4L25q-1313" source="YBfaTymSBxBAk-N4L25q-1378">
          <mxGeometry relative="1" as="geometry">
            <mxPoint x="3319.9999999999995" y="160" as="targetPoint" />
          </mxGeometry>
        </mxCell>
        <mxCell id="YBfaTymSBxBAk-N4L25q-1417" style="edgeStyle=orthogonalEdgeStyle;rounded=0;orthogonalLoop=1;jettySize=auto;html=1;strokeWidth=5;entryX=-0.011;entryY=0.452;entryDx=0;entryDy=0;entryPerimeter=0;" edge="1" parent="YBfaTymSBxBAk-N4L25q-1313" source="YBfaTymSBxBAk-N4L25q-1384" target="YBfaTymSBxBAk-N4L25q-1403">
          <mxGeometry relative="1" as="geometry">
            <mxPoint x="3319.9999999999995" y="400" as="targetPoint" />
          </mxGeometry>
        </mxCell>
        <mxCell id="YBfaTymSBxBAk-N4L25q-1418" style="edgeStyle=orthogonalEdgeStyle;rounded=0;orthogonalLoop=1;jettySize=auto;html=1;strokeWidth=5;entryX=-0.011;entryY=0.534;entryDx=0;entryDy=0;entryPerimeter=0;" edge="1" parent="YBfaTymSBxBAk-N4L25q-1313" source="YBfaTymSBxBAk-N4L25q-1385" target="YBfaTymSBxBAk-N4L25q-1403">
          <mxGeometry relative="1" as="geometry">
            <mxPoint x="3329.9999999999995" y="480" as="targetPoint" />
          </mxGeometry>
        </mxCell>
        <mxCell id="YBfaTymSBxBAk-N4L25q-1419" style="edgeStyle=orthogonalEdgeStyle;rounded=0;orthogonalLoop=1;jettySize=auto;html=1;strokeWidth=5;entryX=1.017;entryY=0.629;entryDx=0;entryDy=0;entryPerimeter=0;" edge="1" parent="YBfaTymSBxBAk-N4L25q-1313" source="YBfaTymSBxBAk-N4L25q-1405" target="YBfaTymSBxBAk-N4L25q-1371">
          <mxGeometry relative="1" as="geometry">
            <mxPoint x="3239.9999999999995" y="580" as="targetPoint" />
          </mxGeometry>
        </mxCell>
        <mxCell id="YBfaTymSBxBAk-N4L25q-1420" value="&lt;font style=&quot;font-size: 40px;&quot;&gt;null&lt;/font&gt;" style="text;html=1;align=center;verticalAlign=middle;resizable=0;points=[];autosize=1;strokeColor=none;fillColor=none;" vertex="1" parent="YBfaTymSBxBAk-N4L25q-1313">
          <mxGeometry x="3342.9999999999995" y="200" width="90" height="60" as="geometry" />
        </mxCell>
        <mxCell id="YBfaTymSBxBAk-N4L25q-1422" value="" style="group;fontSize=30;" vertex="1" connectable="0" parent="YBfaTymSBxBAk-N4L25q-1313">
          <mxGeometry x="2209.9999999999995" y="-17.5" width="310" height="952.5" as="geometry" />
        </mxCell>
        <mxCell id="YBfaTymSBxBAk-N4L25q-1423" value="" style="group" vertex="1" connectable="0" parent="YBfaTymSBxBAk-N4L25q-1422">
          <mxGeometry x="-10" y="42.5" width="290" height="910" as="geometry" />
        </mxCell>
        <mxCell id="YBfaTymSBxBAk-N4L25q-1424" value="" style="rounded=1;whiteSpace=wrap;html=1;fillColor=#dae8fc;strokeColor=#6c8ebf;fontSize=30;" vertex="1" parent="YBfaTymSBxBAk-N4L25q-1423">
          <mxGeometry width="290" height="910" as="geometry" />
        </mxCell>
        <mxCell id="YBfaTymSBxBAk-N4L25q-1425" value="o5" style="rounded=1;whiteSpace=wrap;html=1;fillColor=#f8cecc;strokeColor=#b85450;fontSize=30;" vertex="1" parent="YBfaTymSBxBAk-N4L25q-1423">
          <mxGeometry x="70" y="680" width="160" height="90" as="geometry" />
        </mxCell>
        <mxCell id="YBfaTymSBxBAk-N4L25q-1426" value="" style="rounded=0;whiteSpace=wrap;html=1;fillColor=#d5e8d4;strokeColor=#82b366;fontSize=30;" vertex="1" parent="YBfaTymSBxBAk-N4L25q-1423">
          <mxGeometry x="64.99999999999955" y="560" width="160" height="80" as="geometry" />
        </mxCell>
        <mxCell id="YBfaTymSBxBAk-N4L25q-1427" value="2.5" style="rounded=1;whiteSpace=wrap;html=1;fillColor=#fff2cc;strokeColor=#d6b656;fontSize=30;" vertex="1" parent="YBfaTymSBxBAk-N4L25q-1423">
          <mxGeometry x="70" y="810" width="160" height="90" as="geometry" />
        </mxCell>
        <mxCell id="YBfaTymSBxBAk-N4L25q-1428" value="" style="group;fontSize=30;" vertex="1" connectable="0" parent="YBfaTymSBxBAk-N4L25q-1423">
          <mxGeometry x="70" y="250" width="160.00000000000045" height="240" as="geometry" />
        </mxCell>
        <mxCell id="YBfaTymSBxBAk-N4L25q-1429" value="" style="group;fontSize=30;" vertex="1" connectable="0" parent="YBfaTymSBxBAk-N4L25q-1428">
          <mxGeometry x="4.547473508864641e-13" width="160" height="160" as="geometry" />
        </mxCell>
        <mxCell id="YBfaTymSBxBAk-N4L25q-1430" value="" style="rounded=0;whiteSpace=wrap;html=1;fontSize=30;" vertex="1" parent="YBfaTymSBxBAk-N4L25q-1429">
          <mxGeometry width="160" height="80" as="geometry" />
        </mxCell>
        <mxCell id="YBfaTymSBxBAk-N4L25q-1431" value="" style="rounded=0;whiteSpace=wrap;html=1;fontSize=30;" vertex="1" parent="YBfaTymSBxBAk-N4L25q-1429">
          <mxGeometry y="80" width="160" height="80" as="geometry" />
        </mxCell>
        <mxCell id="YBfaTymSBxBAk-N4L25q-1432" value="" style="rounded=0;whiteSpace=wrap;html=1;fontSize=30;" vertex="1" parent="YBfaTymSBxBAk-N4L25q-1428">
          <mxGeometry y="160" width="160" height="80" as="geometry" />
        </mxCell>
        <mxCell id="YBfaTymSBxBAk-N4L25q-1552" style="edgeStyle=orthogonalEdgeStyle;rounded=0;orthogonalLoop=1;jettySize=auto;html=1;entryX=0;entryY=0.5;entryDx=0;entryDy=0;strokeWidth=5;" edge="1" parent="YBfaTymSBxBAk-N4L25q-1313" source="YBfaTymSBxBAk-N4L25q-1424" target="YBfaTymSBxBAk-N4L25q-1371">
          <mxGeometry relative="1" as="geometry" />
        </mxCell>
        <mxCell id="YBfaTymSBxBAk-N4L25q-1553" value="1" style="edgeLabel;html=1;align=center;verticalAlign=middle;resizable=0;points=[];fontSize=40;" vertex="1" connectable="0" parent="YBfaTymSBxBAk-N4L25q-1552">
          <mxGeometry x="0.1277" y="-10" relative="1" as="geometry">
            <mxPoint x="-1" as="offset" />
          </mxGeometry>
        </mxCell>
        <mxCell id="YBfaTymSBxBAk-N4L25q-1554" style="edgeStyle=orthogonalEdgeStyle;rounded=0;orthogonalLoop=1;jettySize=auto;html=1;entryX=-0.023;entryY=0.419;entryDx=0;entryDy=0;entryPerimeter=0;strokeWidth=5;" edge="1" parent="YBfaTymSBxBAk-N4L25q-1313" source="YBfaTymSBxBAk-N4L25q-1431" target="YBfaTymSBxBAk-N4L25q-1371">
          <mxGeometry relative="1" as="geometry" />
        </mxCell>
        <mxCell id="YBfaTymSBxBAk-N4L25q-1555" value="1" style="edgeLabel;html=1;align=center;verticalAlign=middle;resizable=0;points=[];fontSize=40;" vertex="1" connectable="0" parent="YBfaTymSBxBAk-N4L25q-1554">
          <mxGeometry x="0.1984" y="-12" relative="1" as="geometry">
            <mxPoint as="offset" />
          </mxGeometry>
        </mxCell>
        <mxCell id="YBfaTymSBxBAk-N4L25q-1557" style="edgeStyle=orthogonalEdgeStyle;rounded=0;orthogonalLoop=1;jettySize=auto;html=1;entryX=0;entryY=0.335;entryDx=0;entryDy=0;entryPerimeter=0;strokeWidth=5;" edge="1" parent="YBfaTymSBxBAk-N4L25q-1313" source="YBfaTymSBxBAk-N4L25q-1430" target="YBfaTymSBxBAk-N4L25q-1371">
          <mxGeometry relative="1" as="geometry" />
        </mxCell>
        <mxCell id="YBfaTymSBxBAk-N4L25q-1558" value="1" style="edgeLabel;html=1;align=center;verticalAlign=middle;resizable=0;points=[];fontSize=40;" vertex="1" connectable="0" parent="YBfaTymSBxBAk-N4L25q-1557">
          <mxGeometry x="-0.0027" y="-1" relative="1" as="geometry">
            <mxPoint x="1" as="offset" />
          </mxGeometry>
        </mxCell>
        <mxCell id="YBfaTymSBxBAk-N4L25q-1393" style="edgeStyle=orthogonalEdgeStyle;rounded=0;orthogonalLoop=1;jettySize=auto;html=1;entryX=0;entryY=0.18;entryDx=0;entryDy=0;entryPerimeter=0;strokeWidth=5;" edge="1" parent="YBfaTymSBxBAk-N4L25q-1313" source="YBfaTymSBxBAk-N4L25q-1346" target="YBfaTymSBxBAk-N4L25q-1371">
          <mxGeometry relative="1" as="geometry" />
        </mxCell>
        <mxCell id="YBfaTymSBxBAk-N4L25q-1391" value="1" style="edgeStyle=orthogonalEdgeStyle;rounded=0;orthogonalLoop=1;jettySize=auto;html=1;entryX=0;entryY=0.253;entryDx=0;entryDy=0;entryPerimeter=0;strokeWidth=5;" edge="1" parent="YBfaTymSBxBAk-N4L25q-1313" source="YBfaTymSBxBAk-N4L25q-1332" target="YBfaTymSBxBAk-N4L25q-1371">
          <mxGeometry relative="1" as="geometry" />
        </mxCell>
        <mxCell id="YBfaTymSBxBAk-N4L25q-1392" value="&lt;span style=&quot;font-size: 40px;&quot;&gt;3&lt;br&gt;&lt;/span&gt;" style="edgeLabel;html=1;align=center;verticalAlign=middle;resizable=0;points=[];fontSize=40;" vertex="1" connectable="0" parent="YBfaTymSBxBAk-N4L25q-1391">
          <mxGeometry x="-0.5957" y="2" relative="1" as="geometry">
            <mxPoint as="offset" />
          </mxGeometry>
        </mxCell>
        <mxCell id="YBfaTymSBxBAk-N4L25q-1559" style="edgeStyle=orthogonalEdgeStyle;rounded=0;orthogonalLoop=1;jettySize=auto;html=1;entryX=1.007;entryY=0.66;entryDx=0;entryDy=0;entryPerimeter=0;" edge="1" parent="YBfaTymSBxBAk-N4L25q-1313" source="YBfaTymSBxBAk-N4L25q-1426" target="YBfaTymSBxBAk-N4L25q-1354">
          <mxGeometry relative="1" as="geometry" />
        </mxCell>
      </root>
    </mxGraphModel>
  </diagram>
</mxfile>
